<svg width="24" height="24" viewBox="0 0 24 24" fill="none" xmlns="http://www.w3.org/2000/svg">
<path d="M21.3319 10.0344H21.3061C21.47 9.59643 21.5546 9.12426 21.5546 8.64701C21.5541 7.71974 21.2355 6.83061 20.6689 6.17483C20.1023 5.51904 19.3339 5.15019 18.5324 5.14924C17.9641 5.14894 17.4074 5.33508 16.9269 5.68607C16.6097 4.79298 16.0702 4.02912 15.3769 3.49152C14.6837 2.95391 13.8679 2.66681 13.0334 2.66669C12.4805 2.66669 11.933 2.79267 11.4222 3.03746C10.9114 3.28224 10.4473 3.64102 10.0564 4.09333C9.66541 4.54563 9.35529 5.08259 9.14372 5.67355C8.93214 6.26451 8.82324 6.89789 8.82324 7.53755C8.82456 7.73701 8.83627 7.93619 8.8583 8.13403H8.82324C8.07447 8.13403 7.35637 8.47816 6.82691 9.09071C6.29745 9.70327 6 10.5341 6 11.4004C6 12.2658 6.29688 13.0959 6.82545 13.7083C7.35402 14.3207 8.07106 14.6654 8.81911 14.6667H21.3319C21.8628 14.6664 22.3719 14.4221 22.7472 13.9877C23.1225 13.5533 23.3333 12.9642 23.3333 12.35C23.3333 11.7358 23.1225 11.1469 22.7471 10.7126C22.3718 10.2784 21.8627 10.0344 21.3319 10.0344Z" fill="#9AC6E8"/>
<path d="M18.276 13.929H18.2453C18.4406 13.418 18.5414 12.8671 18.5415 12.3104C18.5408 11.2285 18.1611 10.1912 17.4857 9.42614C16.8102 8.66106 15.8943 8.23073 14.9389 8.22962C14.2615 8.22927 13.5979 8.44644 13.0251 8.85593C12.647 7.81399 12.0039 6.92282 11.1775 6.29561C10.3511 5.6684 9.37877 5.33346 8.38393 5.33331C7.72488 5.33331 7.07229 5.4803 6.46341 5.76588C5.85453 6.05146 5.30129 6.47004 4.83527 6.99773C4.36926 7.52541 3.99959 8.15187 3.74739 8.84132C3.49518 9.53077 3.36537 10.2697 3.36537 11.016C3.36694 11.2487 3.3809 11.4811 3.40716 11.7119H3.36537C2.47282 11.7119 1.61683 12.1134 0.985697 12.828C0.354568 13.5427 0 14.5119 0 15.5226C-9.51572e-07 16.5323 0.35389 17.5007 0.983956 18.2152C1.61402 18.9297 2.46875 19.3318 3.36045 19.3333H18.276C18.9089 19.3329 19.5157 19.048 19.9631 18.5412C20.4104 18.0343 20.6618 17.3471 20.6618 16.6305C20.6618 15.914 20.4104 15.2269 19.963 14.7202C19.5156 14.2136 18.9087 13.929 18.276 13.929Z" fill="#BED7EA"/>
</svg>
