<svg width="24" height="24" viewBox="0 0 24 24" fill="none" xmlns="http://www.w3.org/2000/svg">
<path d="M12.288 2H11.7121C11.3826 2 11.1155 2.26714 11.1155 2.59666V21.4033C11.1155 21.7329 11.3826 22 11.7121 22H12.288C12.6175 22 12.8846 21.7329 12.8846 21.4033V2.59666C12.8846 2.26714 12.6175 2 12.288 2Z" fill="#BED7EA"/>
<path d="M15.4797 3.45391C15.5352 3.50932 15.5792 3.57512 15.6092 3.64755C15.6392 3.71997 15.6547 3.7976 15.6547 3.876C15.6547 3.9544 15.6392 4.03203 15.6092 4.10446C15.5792 4.17689 15.5352 4.24268 15.4797 4.29809L12.0157 7.76344L12.0027 7.74651L11.987 7.76344L8.52168 4.29809C8.46607 4.24277 8.42193 4.177 8.39181 4.10456C8.3617 4.03213 8.34619 3.95445 8.34619 3.876C8.34619 3.79755 8.3617 3.71987 8.39181 3.64744C8.42193 3.575 8.46607 3.50923 8.52168 3.45391L8.92814 3.04744C8.98356 2.99198 9.04936 2.94798 9.12178 2.91796C9.19421 2.88795 9.27184 2.8725 9.35024 2.8725C9.42864 2.8725 9.50627 2.88795 9.5787 2.91796C9.65112 2.94798 9.71692 2.99198 9.77234 3.04744L11.5806 4.85437C11.636 4.90984 11.7018 4.95384 11.7742 4.98386C11.8466 5.01387 11.9243 5.02932 12.0027 5.02932C12.0811 5.02932 12.1587 5.01387 12.2311 4.98386C12.3035 4.95384 12.3693 4.90984 12.4248 4.85437L14.2291 3.04875C14.2844 2.99313 14.3502 2.94899 14.4226 2.91888C14.4951 2.88876 14.5727 2.87325 14.6512 2.87325C14.7296 2.87325 14.8073 2.88876 14.8797 2.91888C14.9522 2.94899 15.0179 2.99313 15.0733 3.04875L15.4797 3.45391Z" fill="#BED7EA"/>
<path d="M8.52163 20.5474C8.46616 20.492 8.42217 20.4262 8.39215 20.3538C8.36213 20.2813 8.34668 20.2037 8.34668 20.1253C8.34668 20.0469 8.36213 19.9693 8.39215 19.8968C8.42217 19.8244 8.46616 19.7586 8.52163 19.7032L11.9844 16.2379L11.9974 16.2535L12.0143 16.2379L15.4784 19.7058C15.5905 19.8179 15.6534 19.97 15.6534 20.1285C15.6534 20.2871 15.5905 20.4392 15.4784 20.5513L15.0706 20.9578C14.9588 21.0694 14.8072 21.1321 14.6492 21.1321C14.4912 21.1321 14.3396 21.0694 14.2277 20.9578L12.4182 19.1456C12.3061 19.0335 12.154 18.9706 11.9954 18.9706C11.8369 18.9706 11.6848 19.0335 11.5727 19.1456L9.76837 20.9513C9.71296 21.0067 9.64716 21.0507 9.57473 21.0807C9.50231 21.1107 9.42468 21.1262 9.34628 21.1262C9.26788 21.1262 9.19024 21.1107 9.11782 21.0807C9.04539 21.0507 8.97959 21.0067 8.92418 20.9513L8.52163 20.5474Z" fill="#BED7EA"/>
<path d="M22 12.2879V11.7121C22 11.3826 21.7329 11.1154 21.4033 11.1154L2.59666 11.1154C2.26714 11.1154 2.00001 11.3826 2.00001 11.7121V12.2879C2.00001 12.6174 2.26714 12.8846 2.59666 12.8846L21.4033 12.8846C21.7329 12.8846 22 12.6174 22 12.2879Z" fill="#BED7EA"/>
<path d="M20.5476 15.4797C20.4355 15.5914 20.2837 15.6541 20.1255 15.6541C19.9672 15.6541 19.8155 15.5914 19.7034 15.4797L16.238 12.0195L16.2537 12.0065L16.238 11.9909L19.7021 8.52551C19.7575 8.46986 19.8234 8.4257 19.8959 8.39556C19.9685 8.36543 20.0463 8.34991 20.1248 8.34991C20.2034 8.34991 20.2812 8.36543 20.3537 8.39556C20.4263 8.4257 20.4921 8.46986 20.5476 8.52551L20.954 8.93197C21.0657 9.04406 21.1284 9.19584 21.1284 9.35407C21.1284 9.5123 21.0657 9.66409 20.954 9.77617L19.1484 11.5831C19.0928 11.6384 19.0487 11.7042 19.0185 11.7766C18.9884 11.8491 18.9729 11.9267 18.9729 12.0052C18.9729 12.0836 18.9884 12.1613 19.0185 12.2337C19.0487 12.3062 19.0928 12.372 19.1484 12.4273L20.9527 14.2342C21.0082 14.2896 21.0522 14.3554 21.0822 14.4278C21.1122 14.5003 21.1277 14.5779 21.1277 14.6563C21.1277 14.7347 21.1122 14.8123 21.0822 14.8848C21.0522 14.9572 21.0082 15.023 20.9527 15.0784L20.5476 15.4797Z" fill="#BED7EA"/>
<path d="M3.45386 8.52163C3.50927 8.46617 3.57507 8.42217 3.64749 8.39215C3.71992 8.36214 3.79755 8.34668 3.87595 8.34668C3.95435 8.34668 4.03198 8.36214 4.10441 8.39215C4.17683 8.42217 4.24263 8.46617 4.29805 8.52163L7.76339 11.9844L7.74646 11.9974L7.76339 12.0143L4.29805 15.4784C4.24263 15.5338 4.17683 15.5778 4.10441 15.6079C4.03198 15.6379 3.95435 15.6533 3.87595 15.6533C3.79755 15.6533 3.71992 15.6379 3.64749 15.6079C3.57507 15.5778 3.50927 15.5338 3.45386 15.4784L3.04739 15.0706C2.99197 15.0153 2.948 14.9496 2.918 14.8773C2.888 14.805 2.87256 14.7275 2.87256 14.6492C2.87256 14.5709 2.888 14.4934 2.918 14.421C2.948 14.3487 2.99197 14.283 3.04739 14.2277L4.85432 12.4208C4.96642 12.3087 5.02938 12.1566 5.02938 11.9981C5.02938 11.8395 4.96642 11.6874 4.85432 11.5753L3.04869 9.77098C2.99308 9.71565 2.94894 9.64989 2.91883 9.57745C2.88871 9.50501 2.87321 9.42733 2.87321 9.34889C2.87321 9.27044 2.88871 9.19276 2.91883 9.12032C2.94894 9.04788 2.99308 8.98212 3.04869 8.92679L3.45386 8.52163Z" fill="#BED7EA"/>
<path d="M7.22402 16.7773C7.16856 16.7218 7.12456 16.6561 7.09454 16.5836C7.06452 16.5112 7.04907 16.4336 7.04907 16.3552C7.04907 16.2768 7.06452 16.1991 7.09454 16.1267C7.12456 16.0543 7.16856 15.9885 7.22402 15.9331L15.9356 7.2228C15.991 7.16734 16.0568 7.12334 16.1292 7.09332C16.2017 7.0633 16.2793 7.04785 16.3577 7.04785C16.4361 7.04785 16.5137 7.0633 16.5861 7.09332C16.6586 7.12334 16.7244 7.16734 16.7798 7.2228C16.8352 7.27821 16.8792 7.34401 16.9093 7.41644C16.9393 7.48887 16.9547 7.56649 16.9547 7.64489C16.9547 7.72329 16.9393 7.80093 16.9093 7.87335C16.8792 7.94578 16.8352 8.01157 16.7798 8.06699L8.07081 16.776C8.01544 16.8319 7.94955 16.8763 7.87693 16.9067C7.80431 16.9371 7.7264 16.9527 7.64769 16.9529C7.56898 16.953 7.49102 16.9375 7.41831 16.9074C7.3456 16.8773 7.27956 16.833 7.22402 16.7773Z" fill="#BED7EA"/>
<path d="M17.7451 9.38534C17.7448 9.54383 17.6817 9.69572 17.5696 9.80778C17.4575 9.91985 17.3056 9.98296 17.1471 9.9833H14.0322V9.97028H14.0166V6.85407C14.0164 6.77549 14.0318 6.69766 14.0618 6.62504C14.0918 6.55241 14.1358 6.48642 14.1914 6.43086C14.2469 6.3753 14.3129 6.33126 14.3855 6.30127C14.4582 6.27128 14.536 6.25593 14.6146 6.2561C14.7727 6.25679 14.9241 6.3201 15.0357 6.43217C15.1473 6.54423 15.2099 6.69593 15.2099 6.85407V8.19201C15.2103 8.35049 15.2734 8.50239 15.3855 8.61446C15.4975 8.72652 15.6494 8.78963 15.8079 8.78998H17.1471C17.3055 8.78998 17.4574 8.8528 17.5695 8.96465C17.6816 9.07651 17.7448 9.22827 17.7451 9.38664V9.38534Z" fill="#BED7EA"/>
<path d="M6.2561 14.6147C6.2561 14.4564 6.31896 14.3047 6.43086 14.1928C6.54276 14.0809 6.69452 14.018 6.85277 14.018H9.96897V14.0323H9.9833V17.1485C9.9833 17.3068 9.92044 17.4586 9.80854 17.5704C9.69665 17.6823 9.54488 17.7452 9.38664 17.7452C9.22839 17.7452 9.07663 17.6823 8.96473 17.5704C8.85284 17.4586 8.78997 17.3068 8.78997 17.1485V15.8093C8.78997 15.6511 8.72711 15.4993 8.61522 15.3874C8.50332 15.2755 8.35155 15.2126 8.19331 15.2126H6.85277C6.69452 15.2126 6.54276 15.1498 6.43086 15.0379C6.31896 14.926 6.2561 14.7742 6.2561 14.616V14.6147Z" fill="#BED7EA"/>
<path d="M7.22273 7.22408C7.27814 7.16862 7.34394 7.12462 7.41637 7.0946C7.48879 7.06458 7.56642 7.04913 7.64482 7.04913C7.72322 7.04913 7.80086 7.06458 7.87328 7.0946C7.94571 7.12462 8.01151 7.16862 8.06692 7.22408L16.7772 15.9278C16.8326 15.9832 16.8766 16.049 16.9067 16.1215C16.9367 16.1939 16.9521 16.2715 16.9521 16.3499C16.9521 16.4283 16.9367 16.506 16.9067 16.5784C16.8766 16.6508 16.8326 16.7166 16.7772 16.772C16.7218 16.8275 16.656 16.8715 16.5835 16.9015C16.5111 16.9315 16.4335 16.947 16.3551 16.947C16.2767 16.947 16.1991 16.9315 16.1266 16.9015C16.0542 16.8715 15.9884 16.8275 15.933 16.772L7.22403 8.06306C7.11343 7.95154 7.05127 7.8009 7.05103 7.64384C7.05078 7.48677 7.11248 7.33595 7.22273 7.22408Z" fill="#BED7EA"/>
<path d="M14.6145 17.7517C14.4561 17.7514 14.3044 17.6882 14.1925 17.5761C14.0806 17.464 14.0178 17.3121 14.0178 17.1537V14.0388H14.0322V14.0232H17.1471C17.2255 14.0232 17.3032 14.0387 17.3757 14.0687C17.4482 14.0988 17.514 14.1429 17.5694 14.1984C17.6248 14.254 17.6688 14.3199 17.6987 14.3924C17.7286 14.465 17.7439 14.5427 17.7437 14.6212C17.7437 14.7794 17.6809 14.9312 17.569 15.0431C17.4571 15.155 17.3053 15.2178 17.1471 15.2178H15.8052C15.6468 15.2182 15.4951 15.2813 15.3832 15.3934C15.2714 15.5055 15.2085 15.6574 15.2085 15.8158V17.1524C15.2085 17.3108 15.1457 17.4627 15.0339 17.5748C14.922 17.6869 14.7702 17.75 14.6119 17.7504L14.6145 17.7517Z" fill="#BED7EA"/>
<path d="M9.38533 6.2561C9.5437 6.2561 9.6956 6.31892 9.8077 6.43078C9.91981 6.54264 9.98296 6.69441 9.9833 6.85277V9.96897H9.97027V9.9833H6.85407C6.77561 9.98347 6.69788 9.96817 6.62534 9.93826C6.55279 9.90835 6.48686 9.86443 6.43132 9.80901C6.37578 9.75358 6.33171 9.68775 6.30165 9.61527C6.27158 9.54279 6.2561 9.4651 6.2561 9.38663C6.25645 9.22827 6.3196 9.07651 6.4317 8.96465C6.54381 8.85279 6.69571 8.78998 6.85407 8.78998H8.19201C8.35037 8.78998 8.50227 8.72715 8.61437 8.61529C8.72648 8.50343 8.78963 8.35167 8.78997 8.19331V6.85277C8.78997 6.77442 8.80541 6.69682 8.83539 6.62443C8.86538 6.55204 8.90933 6.48627 8.96473 6.43086C9.02014 6.37545 9.08591 6.33151 9.1583 6.30152C9.23069 6.27154 9.30828 6.2561 9.38664 6.2561H9.38533Z" fill="#BED7EA"/>
</svg>
