<svg width="83" height="20" viewBox="0 0 83 20" fill="none" xmlns="http://www.w3.org/2000/svg">
<path d="M70.5816 17.3067C72.6561 17.3189 74.7244 17.0547 76.7425 16.5197L73.8661 13.5272L79.3203 15.5666C81.5996 14.4582 82.3958 12.9398 82.137 11.2994C81.5199 7.34265 77.4293 5.29224 70.5517 5.29224C69.865 5.29224 61.8329 5.62474 65.0178 7.99659C63.3856 6.77742 60.0413 7.54218 58.9266 9.24903C57.8119 10.9559 58.8768 12.8844 60.1707 14.1258C62.7983 16.6084 67.1776 17.3067 70.5816 17.3067Z" fill="#8FC8A8"/>
<path d="M22.1256 1.02511C16.1537 -2.46616 0 3.56322 0 10.0359C0 13.5383 4.12055 16.6084 10.3412 18.3928L20.9013 12.1307L15.7954 19.5233C18.1065 19.8449 20.4335 20.004 22.7626 19.9999C28.8538 19.9999 39.2348 19.1243 43.7236 14.4582C48.2124 9.79209 43.1264 4.2282 38.2893 2.38835C34.1687 0.82559 27.5201 -0.0721784 24.0067 3.20851C23.6356 2.25266 22.9678 1.4776 22.1256 1.02511V1.02511Z" fill="#98C5C0"/>
</svg>
