<svg width="24" height="24" viewBox="0 0 24 24" fill="none" xmlns="http://www.w3.org/2000/svg">
<g clip-path="url(#clip0_91_5001)">
<path d="M19.6143 8.59571H19.5835C19.7789 8.08473 19.8797 7.53386 19.8798 6.97707C19.8791 5.89526 19.4994 4.85795 18.8239 4.09286C18.1485 3.32778 17.2325 2.89745 16.2772 2.89634C15.5998 2.89599 14.9362 3.11316 14.3634 3.52265C13.9852 2.48071 13.3421 1.58954 12.5158 0.962331C11.6894 0.335122 10.717 0.000176973 9.72219 3.05176e-05C9.06314 3.05176e-05 8.41055 0.147013 7.80167 0.432594C7.19279 0.718176 6.63954 1.13676 6.17353 1.66444C5.70751 2.19213 5.33785 2.81858 5.08564 3.50804C4.83344 4.19749 4.70363 4.93644 4.70363 5.6827C4.7052 5.9154 4.71916 6.14779 4.74542 6.37859H4.70363C3.81108 6.37859 2.95508 6.78008 2.32395 7.49473C1.69282 8.20937 1.33826 9.17865 1.33826 10.1893C1.33826 11.199 1.69215 12.1674 2.32221 12.8819C2.95228 13.5964 3.80701 13.9986 4.69871 14H19.6143C20.2471 13.9997 20.8539 13.7147 21.3013 13.2079C21.7487 12.701 22 12.0138 22 11.2972C22 10.5807 21.7487 9.89357 21.3012 9.38695C20.8538 8.88033 20.247 8.59571 19.6143 8.59571Z" fill="#BED7EA"/>
<path d="M17.0809 14.8829H11.167L14.1658 9.55161H11.167L6.91901 17.2038H11.5002L9.66672 24.1289L17.0809 14.8829Z" fill="#ECB84B"/>
</g>
<defs>
<clipPath id="clip0_91_5001">
<rect width="24" height="24" fill="white"/>
</clipPath>
</defs>
</svg>
