<svg width="24" height="24" viewBox="0 0 24 24" fill="none" xmlns="http://www.w3.org/2000/svg">
<path d="M18.2101 13.228C19.0712 9.66489 16.8528 6.08504 13.2553 5.23223C9.65782 4.37943 6.04347 6.5766 5.18244 10.1398C4.32141 13.7029 6.53976 17.2828 10.1373 18.1356C13.7348 18.9884 17.3491 16.7912 18.2101 13.228Z" fill="#ECB84B"/>
<path d="M11.7727 4.27904C11.6078 4.29077 11.4449 4.23772 11.3191 4.13137C11.1934 4.02502 11.115 3.87393 11.101 3.71077V1.23652C11.115 1.07337 11.1934 0.922273 11.3191 0.815924C11.4449 0.709576 11.6078 0.656529 11.7727 0.668258C11.9376 0.656529 12.1005 0.709576 12.2262 0.815924C12.352 0.922273 12.4303 1.07337 12.4444 1.23652V3.70724C12.4312 3.87103 12.3532 4.02302 12.2274 4.13011C12.1016 4.23721 11.9382 4.29073 11.7727 4.27904Z" fill="#ECB84B"/>
<path d="M11.7727 22.6753C11.4021 22.6753 11.101 22.4424 11.101 22.1459V19.8693C11.101 19.5799 11.4021 19.3398 11.7727 19.3398C12.1433 19.3398 12.4444 19.5728 12.4444 19.8693V22.1459C12.4444 22.4424 12.1433 22.6753 11.7727 22.6753Z" fill="#ECB84B"/>
<path d="M22.1482 12.3406H19.8978C19.6109 12.3406 19.3793 12.0424 19.3793 11.6753C19.3793 11.3082 19.6109 11.0117 19.8978 11.0117H22.1482C22.4351 11.0117 22.6667 11.3082 22.6667 11.6753C22.6667 12.0424 22.4351 12.3406 22.1482 12.3406Z" fill="#ECB84B"/>
<path d="M19.7855 4.87201L18.1926 6.44974C17.9912 6.65093 17.6153 6.60151 17.3534 6.34208C17.0914 6.08266 17.0415 5.71029 17.2447 5.5091L18.8358 3.93313C19.0389 3.73195 19.4149 3.78136 19.6768 4.04079C19.9388 4.30021 19.9869 4.67259 19.7855 4.87201Z" fill="#ECB84B"/>
<path d="M6.3079 18.2209L4.71674 19.7987C4.51362 19.9981 4.13765 19.9505 3.87573 19.691C3.6138 19.4316 3.56569 19.0575 3.76703 18.858L5.35997 17.2803C5.56132 17.0809 5.93728 17.1285 6.1992 17.388C6.46113 17.6474 6.51102 18.0215 6.3079 18.2209Z" fill="#ECB84B"/>
<path d="M1.21014 12.3406H3.5746C3.87394 12.3406 4.10914 12.0424 4.10914 11.6753C4.10914 11.3082 3.86682 11.0117 3.5746 11.0117H1.21014C0.910793 11.0117 0.666687 11.3082 0.666687 11.6753C0.666687 12.0424 0.910793 12.3406 1.21014 12.3406Z" fill="#ECB84B"/>
<path d="M3.34121 5.21439L5.21389 6.64211C5.45265 6.81859 5.82861 6.73564 6.0549 6.44445C6.28119 6.15326 6.2705 5.7703 6.03352 5.59029L4.16084 4.1608C3.92386 3.98432 3.5479 4.06903 3.32161 4.35846C3.09532 4.64788 3.11136 5.03261 3.34121 5.21439Z" fill="#ECB84B"/>
<path d="M16.9881 18.5616L18.8608 19.991C19.0995 20.1675 19.4755 20.0828 19.7018 19.7934C19.9281 19.504 19.9174 19.1192 19.6804 18.9375L17.8077 17.5097C17.5707 17.3333 17.1948 17.4162 16.9685 17.7074C16.7422 17.9986 16.7511 18.3816 16.9881 18.5616Z" fill="#ECB84B"/>
</svg>
