<svg width="137" height="147" viewBox="0 0 137 147" fill="none" xmlns="http://www.w3.org/2000/svg">
<g clip-path="url(#clip0_91_3508)">
<path d="M138.663 4.72043e-07C131.988 -0.00107766 125.44 1.84467 119.729 5.33703C114.019 8.8294 109.363 13.835 106.269 19.811C101.147 19.2082 95.9571 19.7081 91.0403 21.2779C86.1236 22.8476 81.5916 25.4516 77.7426 28.9184C73.8936 32.3851 70.8147 36.6362 68.7087 41.3918C66.6028 46.1473 65.5174 51.2996 65.5239 56.5095C65.5239 57.5916 65.5798 58.6612 65.6698 59.7214C56.5503 61.1179 48.2898 65.9447 42.5436 73.2348C36.7974 80.5248 33.9899 89.7396 34.6837 99.0327C35.3774 108.326 39.5211 117.011 46.2846 123.348C53.048 129.684 61.9316 133.205 71.1553 133.203C81.7753 133.203 147.128 146.063 171.51 123.2C193.495 102.59 175.235 46.6228 175.235 36.9432C175.234 27.1441 171.38 17.747 164.521 10.8189C157.663 3.89083 148.361 -0.000831508 138.663 4.72043e-07V4.72043e-07Z" fill="url(#paint0_linear_91_3508)"/>
<path d="M104.077 67.196C97.4022 67.1949 90.8546 69.0404 85.1441 72.5321C79.4336 76.0239 74.7783 81.0287 71.6829 87.0038C70.2969 86.8419 68.9029 86.7592 67.5076 86.756C57.8087 86.756 48.5071 90.6489 41.649 97.5783C34.7909 104.508 30.9381 113.906 30.9381 123.705C30.9381 124.788 30.994 125.857 31.084 126.917C21.9645 128.314 13.704 133.141 7.95782 140.431C2.21162 147.721 -0.595886 156.936 0.0978472 166.229C0.79158 175.522 4.93531 184.207 11.6988 190.544C18.4622 196.88 27.3457 200.401 36.5694 200.399C47.1895 200.399 112.543 213.259 136.924 190.396C158.909 169.789 140.65 113.819 140.65 104.139C140.648 94.3401 136.794 84.943 129.935 78.0149C123.077 71.0868 113.775 67.1951 104.077 67.196Z" fill="#549F9F"/>
</g>
<defs>
<linearGradient id="paint0_linear_91_3508" x1="108.465" y1="0" x2="108.465" y2="136.808" gradientUnits="userSpaceOnUse">
<stop stop-color="#819472"/>
<stop offset="1" stop-color="#7C9885"/>
</linearGradient>
<clipPath id="clip0_91_3508">
<rect width="137" height="147" fill="white"/>
</clipPath>
</defs>
</svg>
