<svg width="134" height="92" viewBox="0 0 134 92" fill="none" xmlns="http://www.w3.org/2000/svg">
<g clip-path="url(#clip0_91_3509)">
<path d="M114.276 72.851C96.8557 105.952 64.144 126.388 64.144 126.388C64.144 126.388 57.7601 109.638 56.2508 89.103L61.9073 84.1992L55.9597 83.0737C55.7528 72.951 56.8811 62.2512 60.6266 52.3994L76.5465 53.0447L63.5231 45.9612C70.6801 32.3457 83.8749 22.5758 96.9222 15.8288L104.426 26.252L102.433 13.1102C119.028 5.46504 133.926 2.58127 133.926 2.58127C133.926 2.58127 133.288 13.204 130.032 28.1503L116.432 33.7377L128.751 33.668C126.31 43.7401 123.027 53.5865 118.935 63.1028L102.117 67.6614L115.928 69.6079C115.387 70.6964 114.842 71.777 114.276 72.851Z" fill="#026C6A"/>
<path d="M131.118 6.17806C131.365 6.29511 106.652 25.3036 88.2894 63.0576C74.6944 91.0323 65.4339 123.879 65.1923 123.76C64.9506 123.64 73.8018 91.1704 87.2655 63.1341C106.218 23.6373 130.868 6.05564 131.118 6.17806Z" fill="#005E5F"/>
<g clip-path="url(#clip1_91_3509)">
<path d="M64.0081 62.809C61.772 30.3297 49.4981 4.72017 36.5935 5.60859C23.6889 6.497 15.0402 33.5469 17.2763 66.0262C19.5123 98.5056 31.7862 124.115 44.6908 123.227C57.5955 122.338 66.2441 95.2884 64.0081 62.809Z" fill="#84A367"/>
<path fill-rule="evenodd" clip-rule="evenodd" d="M43.5835 122.858L36.003 5.98109L37.9159 5.84191L45.4964 122.719L43.5835 122.858Z" fill="#C3DFAC"/>
<path fill-rule="evenodd" clip-rule="evenodd" d="M39.5903 42.5352C39.5899 42.5353 39.5896 42.5355 39.1687 41.6167C38.7478 40.6979 38.7476 40.698 38.7474 40.6981L38.7477 40.6979L38.7523 40.6958C38.7568 40.6937 38.7643 40.6901 38.7748 40.6851C38.7957 40.6751 38.8283 40.6594 38.8718 40.6379C38.9588 40.5949 39.0894 40.5289 39.2578 40.4398C39.5948 40.2614 40.0822 39.9905 40.6729 39.626C41.8559 38.896 43.4456 37.7949 45.0699 36.3138C48.331 33.3402 51.6494 28.9123 52.2238 22.9553L54.112 23.2647C53.4724 29.8981 49.7912 34.7235 46.3562 37.8557C44.6325 39.4275 42.95 40.5924 41.6978 41.3651C41.071 41.752 40.55 42.0417 40.183 42.236C39.9995 42.3332 39.8543 42.4066 39.7534 42.4564C39.703 42.4814 39.6636 42.5004 39.636 42.5136C39.6223 42.5201 39.6114 42.5253 39.6037 42.5289L39.5943 42.5333L39.5914 42.5347L39.5903 42.5352Z" fill="#C3DFAC"/>
<path fill-rule="evenodd" clip-rule="evenodd" d="M41.8459 77.4847C41.8456 77.4849 41.8454 77.4851 41.3159 76.6582C40.7865 75.8314 40.7864 75.8315 40.7864 75.8315L40.7867 75.8313L40.7887 75.83L40.7978 75.8241C40.8062 75.8187 40.8191 75.8103 40.8365 75.799C40.8712 75.7764 40.9236 75.7421 40.9925 75.6965C41.1305 75.6053 41.3346 75.4689 41.5958 75.2904C42.1184 74.9331 42.8693 74.4075 43.7763 73.7375C45.5918 72.3966 48.0262 70.4827 50.5064 68.189C52.9894 65.8926 55.4994 63.2329 57.4801 60.4026C59.4662 57.5646 60.8781 54.6145 61.2475 51.7305L63.1905 51.9845C62.7652 55.3044 61.167 58.5564 59.0848 61.5318C56.9972 64.5149 54.3808 67.2798 51.8366 69.6327C49.2897 71.9881 46.7963 73.9479 44.9408 75.3184C44.0123 76.0042 43.2419 76.5436 42.702 76.9126C42.4321 77.0971 42.2197 77.2391 42.0739 77.3355C42.001 77.3837 41.9448 77.4205 41.9063 77.4456C41.8871 77.4581 41.8723 77.4677 41.8621 77.4743L41.8502 77.4819L41.8459 77.4847Z" fill="#C3DFAC"/>
<path fill-rule="evenodd" clip-rule="evenodd" d="M44.1752 105.872C44.1749 105.872 44.1747 105.872 43.676 105.029C43.1774 104.186 43.1773 104.186 43.1772 104.186L43.1792 104.185L43.1874 104.18C43.1951 104.175 43.207 104.168 43.223 104.158C43.2551 104.139 43.3036 104.109 43.3676 104.069C43.4955 103.99 43.6852 103.871 43.9281 103.715C44.4141 103.403 45.1128 102.941 45.957 102.348C47.647 101.161 49.9131 99.453 52.222 97.3681C56.8926 93.1505 61.5242 87.5784 62.2252 81.787L64.1401 82.0507C63.3476 88.5991 58.2259 94.582 53.5166 98.8346C51.1354 100.985 48.8049 102.741 47.0708 103.959C46.203 104.568 45.4827 105.044 44.9777 105.369C44.7252 105.531 44.5264 105.656 44.3898 105.741C44.3214 105.783 44.2687 105.815 44.2325 105.837C44.2144 105.848 44.2004 105.857 44.1907 105.862L44.1794 105.869L44.1752 105.872Z" fill="#C3DFAC"/>
<path fill-rule="evenodd" clip-rule="evenodd" d="M39.8656 40.7673C39.8654 40.7673 39.8651 40.7672 39.6009 41.706C39.3367 42.6448 39.3363 42.6446 39.3359 42.6445L39.3316 42.6431L39.3214 42.6397C39.3153 42.6377 39.3073 42.6351 39.2977 42.6318C39.2941 42.6306 39.2903 42.6294 39.2863 42.628C39.2564 42.6179 39.2136 42.6033 39.1587 42.584C39.0488 42.5455 38.8905 42.4884 38.6895 42.4119C38.2876 42.259 37.7148 42.0284 37.0191 41.7137C35.6292 41.085 33.7399 40.1168 31.7395 38.7558C27.7531 36.0438 23.2287 31.7046 21.4488 25.2981L23.2909 24.8082C24.8891 30.5603 28.9803 34.5475 32.7649 37.1222C34.6499 38.4047 36.435 39.3199 37.7481 39.9138C38.4039 40.2104 38.9397 40.4259 39.3087 40.5663C39.4931 40.6365 39.6356 40.6878 39.7303 40.7211C39.7777 40.7377 39.8131 40.7498 39.8358 40.7574C39.8472 40.7612 39.8553 40.764 39.8603 40.7656L39.8652 40.7672L39.8656 40.7673Z" fill="#C3DFAC"/>
<path fill-rule="evenodd" clip-rule="evenodd" d="M41.9569 76.0225C41.9569 76.0225 41.9568 76.0224 41.5643 76.8987C41.1717 77.775 41.1714 77.7749 41.1711 77.7747L41.1666 77.7725L41.154 77.7665C41.1433 77.7614 41.1276 77.7539 41.1073 77.7441C41.0667 77.7244 41.0072 77.6955 40.9301 77.6576C40.7758 77.5817 40.5508 77.4696 40.2643 77.3232C39.6913 77.0305 38.8717 76.6001 37.8791 76.0465C35.8952 74.9402 33.2126 73.338 30.4226 71.3553C27.6356 69.3748 24.7206 67.0001 22.285 64.345C19.8557 61.6967 17.8543 58.7162 16.9751 55.5206L18.8119 55.0276C19.5755 57.8029 21.3542 60.511 23.6711 63.0368C25.9818 65.5559 28.7792 67.841 31.4992 69.7739C34.2162 71.7046 36.8353 73.2694 38.7763 74.3518C39.7461 74.8926 40.5448 75.312 41.0995 75.5954C41.3768 75.7371 41.593 75.8447 41.739 75.9165C41.8119 75.9524 41.8673 75.9793 41.904 75.9971C41.9156 76.0026 41.9252 76.0073 41.933 76.011L41.9449 76.0167L41.9545 76.0213L41.9566 76.0223L41.9569 76.0225Z" fill="#C3DFAC"/>
<path fill-rule="evenodd" clip-rule="evenodd" d="M43.4193 104.749C43.4192 104.749 43.4191 104.749 43.0725 105.622C42.726 106.495 42.7257 106.495 42.7254 106.495L42.721 106.493L42.7092 106.488C42.6992 106.483 42.6846 106.477 42.6658 106.468C42.628 106.451 42.573 106.426 42.5017 106.392C42.3591 106.326 42.1513 106.228 41.8868 106.1C41.3579 105.844 40.6015 105.465 39.6849 104.974C37.853 103.994 35.3732 102.56 32.7858 100.751C27.6684 97.1735 21.8981 91.9675 20.1565 85.7185L21.9365 85.2445C23.4769 90.7714 28.7196 95.6357 33.7948 99.1841C36.3036 100.938 38.7149 102.332 40.5001 103.288C41.392 103.765 42.1256 104.132 42.6346 104.379C42.8891 104.503 43.0872 104.596 43.2208 104.658C43.2876 104.689 43.3382 104.712 43.3716 104.728C43.3883 104.735 43.4007 104.741 43.4086 104.744L43.4173 104.748L43.4193 104.749Z" fill="#C3DFAC"/>
</g>
</g>
<defs>
<clipPath id="clip0_91_3509">
<rect width="134" height="92" fill="white"/>
</clipPath>
<clipPath id="clip1_91_3509">
<rect width="81" height="104" fill="white" transform="translate(0 3.99997)"/>
</clipPath>
</defs>
</svg>
