<svg width="24" height="24" viewBox="0 0 24 24" fill="none" xmlns="http://www.w3.org/2000/svg">
<path d="M19.6142 9.92902H19.5835C19.7788 9.41804 19.8796 8.86718 19.8797 8.31038C19.879 7.22857 19.4993 6.19126 18.8239 5.42617C18.1484 4.66109 17.2325 4.23076 16.2771 4.22966C15.5997 4.2293 14.9361 4.44647 14.3633 4.85596C13.9852 3.81402 13.3421 2.92285 12.5157 2.29564C11.6893 1.66843 10.717 1.33349 9.72213 1.33334C9.06308 1.33334 8.41049 1.48033 7.80161 1.76591C7.19273 2.05149 6.63948 2.47007 6.17347 2.99776C5.70745 3.52544 5.33779 4.1519 5.08558 4.84135C4.83338 5.5308 4.70357 6.26975 4.70357 7.01601C4.70514 7.24871 4.71909 7.4811 4.74536 7.7119H4.70357C3.81102 7.7119 2.95502 8.11339 2.32389 8.82804C1.69276 9.54268 1.3382 10.512 1.3382 11.5226C1.33819 12.5323 1.69209 13.5008 2.32215 14.2152C2.95222 14.9297 3.80695 15.3319 4.69865 15.3333H19.6142C20.2471 15.333 20.8539 15.048 21.3013 14.5412C21.7486 14.0344 21.9999 13.3471 21.9999 12.6305C21.9999 11.914 21.7486 11.2269 21.3012 10.7203C20.8538 10.2136 20.2469 9.92902 19.6142 9.92902Z" fill="#BED7EA"/>
<path d="M8.33335 15.3333L6.9047 18.0362C6.74417 18.3282 6.66271 18.6497 6.66684 18.9749C6.67097 19.3001 6.76057 19.6199 6.92848 19.9086C7.17716 20.3172 7.60318 20.6666 8.33335 20.6666C9.06353 20.6666 9.48955 20.3137 9.73823 19.9086C9.90613 19.6199 9.99574 19.3001 9.99987 18.9749C10.004 18.6497 9.92254 18.3282 9.76201 18.0362L8.33335 15.3333Z" fill="#84C1EF"/>
<path d="M13.0324 20L12.1477 21.8793C12.0481 22.0824 11.9975 22.306 12.0001 22.5322C12.0027 22.7585 12.0583 22.9809 12.1625 23.1817C12.2454 23.3408 12.3704 23.474 12.5237 23.5671C12.6771 23.6601 12.853 23.7093 13.0324 23.7093C13.2117 23.7093 13.3877 23.6601 13.541 23.5671C13.6944 23.474 13.8193 23.3408 13.9022 23.1817C14.0061 22.9808 14.0616 22.7584 14.0642 22.5322C14.0668 22.3061 14.0164 22.0824 13.9171 21.8793L13.0324 20Z" fill="#84C1EF"/>
<path d="M16.3085 12.6667L14.9008 15.6572C14.7428 15.9804 14.6627 16.3361 14.6668 16.6958C14.671 17.0556 14.7594 17.4093 14.9248 17.7287C15.0568 17.9818 15.2556 18.1939 15.4997 18.3419C15.7437 18.4899 16.0237 18.5682 16.3091 18.5682C16.5945 18.5682 16.8745 18.4899 17.1185 18.3419C17.3626 18.1939 17.5614 17.9818 17.6934 17.7287C17.8584 17.4091 17.9464 17.0554 17.9504 16.6957C17.9543 16.336 17.8742 15.9804 17.7162 15.6572L16.3085 12.6667Z" fill="#84C1EF"/>
</svg>
