<svg width="134" height="147" viewBox="0 0 134 147" fill="none" xmlns="http://www.w3.org/2000/svg">
<g clip-path="url(#clip0_91_3511)">
<path d="M-1.62637 4.72043e-07C4.90261 -0.00107766 11.3072 1.84467 16.8927 5.33703C22.4783 8.8294 27.0314 13.835 30.0583 19.811C35.0679 19.2082 40.1442 19.7081 44.9533 21.2779C49.7623 22.8476 54.1951 25.4516 57.9598 28.9184C61.7246 32.3851 64.736 36.6362 66.7959 41.3918C68.8557 46.1473 69.9174 51.2996 69.9109 56.5095C69.9109 57.5916 69.8563 58.6612 69.7682 59.7214C78.6881 61.1179 86.7676 65.9447 92.388 73.2348C98.0084 80.5248 100.754 89.7396 100.076 99.0327C99.3973 108.326 95.3443 117.011 88.729 123.348C82.1137 129.684 73.4246 133.205 64.4029 133.203C54.0154 133.203 -9.90662 146.063 -33.7544 123.2C-55.2581 102.59 -37.3981 46.6228 -37.3981 36.9432C-37.3965 27.1441 -33.6269 17.747 -26.9185 10.8189C-20.2101 3.89083 -11.1123 -0.000831508 -1.62637 4.72043e-07V4.72043e-07Z" fill="url(#paint0_linear_91_3511)"/>
<path d="M32.2021 67.196C38.7307 67.1949 45.1349 69.0404 50.7204 72.5321C56.3058 76.0239 60.8592 81.0287 63.8868 87.0038C65.2425 86.8419 66.606 86.7592 67.9707 86.756C77.4571 86.756 86.5551 90.6489 93.263 97.5783C99.9709 104.508 103.739 113.906 103.739 123.705C103.739 124.788 103.685 125.857 103.597 126.917C112.517 128.314 120.596 133.141 126.216 140.431C131.837 147.721 134.583 156.936 133.904 166.229C133.226 175.522 129.173 184.207 122.557 190.544C115.942 196.88 107.253 200.401 98.2314 200.399C87.8439 200.399 23.9218 213.259 0.0740228 190.396C-21.4297 169.789 -3.56964 113.819 -3.56964 104.139C-3.56803 94.3401 0.201567 84.943 6.90997 78.0149C13.6184 71.0868 22.7162 67.1951 32.2021 67.196Z" fill="#69ADAD"/>
</g>
<defs>
<linearGradient id="paint0_linear_91_3511" x1="27.91" y1="0" x2="27.91" y2="136.808" gradientUnits="userSpaceOnUse">
<stop stop-color="#618E6F"/>
<stop offset="1" stop-color="#8D9D92"/>
</linearGradient>
<clipPath id="clip0_91_3511">
<rect width="134" height="147" fill="white" transform="matrix(-1 0 0 1 134 0)"/>
</clipPath>
</defs>
</svg>
