<svg width="190" height="141" viewBox="0 0 190 141" fill="none" xmlns="http://www.w3.org/2000/svg">
<g clip-path="url(#clip0_91_3510)">
<path d="M55.5212 191.429L54.2561 190.846C54.3313 190.684 61.7068 174.191 61.2575 144.289C60.9941 126.722 58.1201 108.033 52.7193 88.7424C45.9641 64.6164 35.2139 39.4777 20.7734 14.0234L21.9861 13.3352C36.5064 38.9181 47.3078 64.1878 54.0928 88.4449C59.5231 107.864 62.4069 126.682 62.6528 144.368C63.0849 174.558 55.5973 191.262 55.5212 191.429Z" fill="#E2E8A8"/>
<path d="M49.9355 76.8282C48.8911 76.396 49.1121 73.3985 50.4419 70.146C51.7716 66.8935 53.6824 64.5959 54.7289 65.0213C55.7754 65.4468 55.5522 68.451 54.2212 71.7053C52.8901 74.9596 50.9766 77.2607 49.9355 76.8282Z" fill="#E2E8A8"/>
<path d="M31.1013 52.5568C31.534 51.5154 34.5328 51.7341 37.785 53.0634C41.0372 54.3927 43.3344 56.3033 42.9074 57.3517C42.4805 58.4002 39.4759 58.1743 36.2237 56.8451C32.9716 55.5158 30.6744 53.594 31.1013 52.5568Z" fill="#E2E8A8"/>
<path d="M43.5839 57.5658C42.6781 57.2139 42.9938 54.4734 44.3045 51.457C45.6153 48.4407 47.4028 46.2706 48.3136 46.6158C49.2244 46.961 48.905 49.7065 47.5958 52.724C46.2866 55.7415 44.4925 57.9171 43.5839 57.5658Z" fill="#E2E8A8"/>
<path d="M22.7571 34.5279C23.1895 33.487 26.1879 33.7062 29.4399 35.0358C32.6918 36.3654 34.989 38.2759 34.5624 39.324C34.1357 40.372 31.1316 40.1457 27.8796 38.8161C24.6276 37.4865 22.3264 35.5702 22.7571 34.5279Z" fill="#E2E8A8"/>
<path d="M35.2399 39.5392C34.3322 39.186 34.6489 36.4463 35.9594 33.4297C37.2699 30.4132 39.0574 28.2431 39.9686 28.5885C40.8797 28.934 40.5608 31.6798 39.2518 34.6975C37.9429 37.7152 36.1442 39.8874 35.2399 39.5392Z" fill="#E2E8A8"/>
<path d="M59.5007 145.825C57.3466 142.31 54.6983 140.014 53.5856 140.696C52.4729 141.378 53.3171 144.78 55.4712 148.294C57.6253 151.809 60.2735 154.105 61.3863 153.424C62.499 152.742 61.6548 149.339 59.5007 145.825Z" fill="#E2E8A8"/>
<path d="M51.592 121.258C52.6081 120.42 55.5419 122.342 58.1664 125.528C60.7909 128.714 62.0953 131.972 61.0855 132.801C60.0758 133.63 57.1356 131.717 54.5111 128.531C51.8866 125.344 50.5839 122.088 51.592 121.258Z" fill="#E2E8A8"/>
<path d="M73.32 124.669C72.4912 123.661 69.2379 124.966 66.0535 127.584C62.8691 130.202 60.9595 133.141 61.7883 134.149C62.6171 135.158 65.8704 133.853 69.0548 131.235C72.2392 128.617 74.1488 125.677 73.32 124.669Z" fill="#E2E8A8"/>
<path d="M45.816 104.619C46.6042 103.467 50.0757 104.459 53.5708 106.832C57.0659 109.206 59.2593 112.061 58.4712 113.213C57.683 114.365 54.2101 113.375 50.7168 111.002C47.2234 108.63 45.0279 105.77 45.816 104.619Z" fill="#E2E8A8"/>
<path d="M59.6339 114.049C58.4851 113.257 59.3774 109.915 61.6306 106.581C63.8838 103.248 66.6432 101.187 67.7932 101.977C68.9433 102.768 68.0479 106.11 65.7947 109.443C63.5415 112.777 60.7839 114.839 59.6339 114.049Z" fill="#E2E8A8"/>
<path d="M54.6273 94.7521C55.3624 93.6738 53.1974 90.9171 49.7914 88.5949C46.3854 86.2726 43.0283 85.2642 42.2932 86.3425C41.558 87.4208 43.7231 90.1774 47.129 92.4997C50.535 94.8219 53.8921 95.8303 54.6273 94.7521Z" fill="#E2E8A8"/>
<path d="M61.7926 90.8728C64.1148 87.4669 65.1233 84.1098 64.045 83.3746C62.9667 82.6394 60.21 84.8045 57.8878 88.2105C55.5655 91.6164 54.5571 94.9735 55.6354 95.7087C56.7137 96.4439 59.4703 94.2788 61.7926 90.8728Z" fill="#E2E8A8"/>
<path d="M37.9938 71.3127C38.4403 70.28 41.3158 70.4111 44.4089 71.6226C47.5019 72.834 49.6568 74.6383 49.2183 75.6743C48.7798 76.7102 45.8963 76.5759 42.8036 75.3675C39.7108 74.1591 37.5489 72.3467 37.9938 71.3127Z" fill="#E2E8A8"/>
</g>
<g clip-path="url(#clip1_91_3510)">
<path d="M124.748 178.429L126.235 177.846C126.147 177.684 117.479 161.191 118.007 131.289C118.316 113.722 121.694 95.0333 128.041 75.7424C135.98 51.6164 148.615 26.4777 165.586 1.02337L164.161 0.335241C147.096 25.9181 134.401 51.1878 126.427 75.4449C120.045 94.864 116.656 113.682 116.367 131.368C115.859 161.558 124.659 178.262 124.748 178.429Z" fill="#E2E8A8"/>
<path d="M131.313 63.8282C132.54 63.396 132.281 60.3985 130.718 57.146C129.155 53.8935 126.909 51.5959 125.679 52.0213C124.45 52.4468 124.712 55.451 126.276 58.7053C127.84 61.9596 130.089 64.2607 131.313 63.8282Z" fill="#E2E8A8"/>
<path d="M153.448 39.5568C152.939 38.5154 149.415 38.7341 145.593 40.0634C141.771 41.3927 139.071 43.3033 139.573 44.3517C140.075 45.4002 143.606 45.1743 147.428 43.8451C151.25 42.5158 153.95 40.594 153.448 39.5568Z" fill="#E2E8A8"/>
<path d="M138.778 44.5658C139.842 44.2139 139.471 41.4734 137.931 38.457C136.39 35.4407 134.29 33.2706 133.219 33.6158C132.149 33.961 132.524 36.7065 134.063 39.724C135.601 42.7415 137.71 44.9171 138.778 44.5658Z" fill="#E2E8A8"/>
<path d="M163.255 21.5279C162.746 20.487 159.223 20.7062 155.401 22.0358C151.579 23.3654 148.879 25.2759 149.38 26.324C149.882 27.372 153.412 27.1457 157.234 25.8161C161.056 24.4865 163.761 22.5702 163.255 21.5279Z" fill="#E2E8A8"/>
<path d="M148.584 26.5392C149.651 26.186 149.279 23.4463 147.738 20.4297C146.198 17.4132 144.097 15.2431 143.027 15.5885C141.956 15.934 142.331 18.6798 143.869 21.6975C145.407 24.7152 147.521 26.8874 148.584 26.5392Z" fill="#E2E8A8"/>
<path d="M120.071 132.825C122.603 129.31 125.715 127.014 127.023 127.696C128.331 128.378 127.339 131.78 124.807 135.294C122.275 138.809 119.163 141.105 117.855 140.424C116.548 139.742 117.54 136.339 120.071 132.825Z" fill="#E2E8A8"/>
<path d="M102.279 133.908C103.08 132.796 107.079 133.64 111.209 135.794C115.34 137.948 118.039 140.596 117.237 141.709C116.436 142.822 112.438 141.978 108.307 139.823C104.176 137.669 101.477 135.021 102.279 133.908Z" fill="#E2E8A8"/>
<path d="M129.366 108.258C128.172 107.42 124.724 109.342 121.639 112.528C118.555 115.714 117.022 118.972 118.209 119.801C119.395 120.63 122.851 118.717 125.935 115.531C129.02 112.344 130.551 109.088 129.366 108.258Z" fill="#E2E8A8"/>
<path d="M103.83 111.669C104.804 110.661 108.628 111.966 112.37 114.584C116.113 117.202 118.357 120.141 117.383 121.149C116.409 122.158 112.585 120.853 108.843 118.235C105.1 115.617 102.856 112.677 103.83 111.669Z" fill="#E2E8A8"/>
<path d="M136.154 91.6186C135.228 90.467 131.148 91.4588 127.041 93.8324C122.933 96.2061 120.355 99.0614 121.281 100.213C122.208 101.365 126.289 100.375 130.395 98.0024C134.5 95.63 137.081 92.7703 136.154 91.6186Z" fill="#E2E8A8"/>
<path d="M119.915 101.049C121.265 100.257 120.216 96.915 117.568 93.5815C114.92 90.248 111.677 88.1869 110.325 88.9772C108.974 89.7675 110.026 93.1099 112.674 96.4434C115.322 99.7769 118.563 101.839 119.915 101.049Z" fill="#E2E8A8"/>
<path d="M125.799 81.7521C124.935 80.6738 127.479 77.9171 131.482 75.5949C135.485 73.2726 139.431 72.2642 140.295 73.3425C141.159 74.4208 138.614 77.1774 134.611 79.4997C130.608 81.8219 126.663 82.8303 125.799 81.7521Z" fill="#E2E8A8"/>
<path d="M117.378 77.8728C114.649 74.4669 113.463 71.1098 114.731 70.3746C115.998 69.6394 119.238 71.8045 121.967 75.2105C124.696 78.6164 125.881 81.9735 124.614 82.7087C123.347 83.4439 120.107 81.2788 117.378 77.8728Z" fill="#E2E8A8"/>
<path d="M145.348 58.3127C144.823 57.28 141.443 57.4111 137.808 58.6226C134.173 59.834 131.64 61.6383 132.156 62.6743C132.671 63.7102 136.06 63.5759 139.695 62.3675C143.33 61.1591 145.87 59.3467 145.348 58.3127Z" fill="#E2E8A8"/>
</g>
<defs>
<clipPath id="clip0_91_3510">
<rect width="97" height="128" fill="white" transform="translate(0 13)"/>
</clipPath>
<clipPath id="clip1_91_3510">
<rect width="114" height="139" fill="white" transform="matrix(-1 0 0 1 190 0)"/>
</clipPath>
</defs>
</svg>
