<svg width="52" height="36" viewBox="0 0 52 36" fill="none" xmlns="http://www.w3.org/2000/svg">
<ellipse cx="26" cy="26.4986" rx="26" ry="9.50144" fill="#649E8F"/>
<path d="M38.6467 22.6162C37.5117 21.7267 36.5734 20.6191 35.8891 19.3613C35.3628 18.2647 35.0976 17.0647 35.1136 15.8525C35.3257 15.4554 35.5444 15.0713 35.7764 14.7068C36.8684 12.9748 37.7578 11.1273 38.4279 9.1994C38.8985 7.73468 39.6211 6.3546 39.8199 4.81827C39.8543 4.11449 39.6038 3.42593 39.1233 2.90276C38.6427 2.37959 37.971 2.06425 37.2546 2.02553C36.0741 1.95847 34.8965 2.19876 33.8409 2.72209C32.8201 2.88484 31.7727 3.22985 30.7453 3.48374C28.4902 4.0969 26.3046 4.9345 24.2227 5.98352C21.8032 7.11624 18.2569 9.34263 16.4804 12.0833C15.6508 11.9774 14.808 12.0349 14.0013 12.2525C12.9185 12.5524 11.9489 13.1574 11.2126 13.9928C10.4762 14.8282 10.0054 15.8572 9.85841 16.9526C9.63966 18.5085 10.097 20.4289 11.5023 21.3468C11.7712 21.5146 12.0882 21.5926 12.4059 21.5692C12.7237 21.5457 13.0252 21.4221 13.2655 21.2166C13.8154 20.6851 14.2171 20.0238 14.4322 19.2962C14.578 18.8796 14.81 18.2742 15.3138 18.1374C15.5466 18.0974 15.7854 18.1069 16.0141 18.1653C16.2428 18.2237 16.4561 18.3296 16.6395 18.476C16.7519 18.6059 16.8714 18.7298 16.9975 18.847V18.847C22.4661 26.4571 13.0866 23.6123 13.5108 23.5797C13.3517 23.5472 12.543 23.2672 13.1131 23.5797C12.9796 23.4977 12.8292 23.446 12.6727 23.4286C12.5163 23.4111 12.3578 23.4283 12.2091 23.4789C12.0603 23.5295 11.9249 23.6121 11.813 23.7208C11.701 23.8295 11.6152 23.9615 11.562 24.107C11.3565 24.9012 11.1046 25.409 11.6017 26.4115C12.0989 27.414 13.2324 28.8462 16.7323 29.4386L17.0704 29.4972C19.3109 29.8096 21.4453 29.1456 23.5002 28.3254C25.7871 27.4075 27.5635 26.2618 28.8031 24.1981C29.1544 23.9898 29.5057 23.7555 29.8703 23.4951C30.3496 23.1498 30.7936 22.7595 31.196 22.3298C32.121 23.9312 33.5588 25.1877 35.2859 25.9037C36.2603 26.2943 39.2631 26.8021 39.5813 25.1811C39.6939 24.7106 39.6656 24.2181 39.4998 23.7631C39.334 23.308 39.0377 22.9097 38.6467 22.6162V22.6162Z" fill="#80BD6F"/>
<path d="M37.5333 24.413C37.9045 24.374 38.2691 24.3154 38.6403 24.2698C38.7066 24.2698 38.6801 24.1657 38.6403 24.1722C38.2691 24.2047 37.9045 24.2503 37.54 24.2763C37.529 24.273 37.5175 24.2722 37.5062 24.2741C37.4949 24.2759 37.4842 24.2803 37.475 24.287C37.4658 24.2936 37.4583 24.3023 37.4532 24.3124C37.448 24.3224 37.4453 24.3335 37.4453 24.3447C37.4453 24.3559 37.448 24.367 37.4532 24.377C37.4583 24.387 37.4658 24.3957 37.475 24.4024C37.4842 24.409 37.4949 24.4135 37.5062 24.4153C37.5175 24.4172 37.529 24.4164 37.54 24.413H37.5333Z" fill="#80BD6F"/>
<path d="M38.269 24.0615C39.9689 23.9452 41.6601 23.7278 43.3333 23.4105C44.4668 23.2478 46.0311 23.5277 47.0652 23.0069C47.1245 22.974 47.1718 22.9236 47.2003 22.8629C47.2289 22.8021 47.2373 22.7341 47.2243 22.6684C47.0321 21.451 45.2357 21.3664 44.2613 21.4706C42.0872 21.7075 40.0016 22.4482 38.1762 23.6318C38.0038 23.736 38.0237 24.055 38.269 24.0485V24.0615Z" fill="#80BD6F"/>
<path d="M38.3883 24.9663C39.714 25.5652 41.3182 25.6173 42.7499 25.7931C44.0998 25.9845 45.4304 26.2894 46.7271 26.7045C46.9221 26.764 47.1316 26.7597 47.3239 26.6921C47.5162 26.6246 47.6809 26.4974 47.7931 26.3299C47.9054 26.1623 47.9591 25.9634 47.9461 25.7633C47.9332 25.5631 47.8543 25.3725 47.7214 25.2202C46.6675 24.0549 44.8181 23.9182 43.3266 23.7555C41.6032 23.5472 39.6809 23.1045 38.2358 24.2763C38.1825 24.3243 38.1428 24.3851 38.1205 24.4527C38.0983 24.5203 38.0944 24.5924 38.1091 24.662C38.1238 24.7316 38.1566 24.7962 38.2044 24.8495C38.2522 24.9029 38.3133 24.9431 38.3817 24.9663H38.3883Z" fill="#80BD6F"/>
<path d="M37.3875 25.0445C37.6791 26.0405 38.9054 26.6719 39.7406 27.1927C40.7813 27.8437 41.3912 28.996 42.4451 29.6404C43.2936 30.1547 44.5663 29.2238 43.9697 28.2929C43.2671 27.2176 42.3353 26.3047 41.2387 25.6173C40.3041 25.0184 38.5872 24.2503 37.5001 24.8036C37.4574 24.8264 37.4233 24.8622 37.403 24.9056C37.3827 24.949 37.3773 24.9978 37.3875 25.0445V25.0445Z" fill="#80BD6F"/>
<path d="M13.1531 23.8468V23.7882C13.157 23.7009 13.1377 23.6142 13.097 23.5366C13.0563 23.4589 12.9957 23.393 12.9211 23.3455C10.2696 21.9329 8.22136 27.4011 7.55186 29.0416C7.22043 29.8619 8.31416 30.4412 8.93726 29.9335C10.0045 29.0546 10.4353 27.2319 11.0783 26.0276C11.3693 25.3887 11.8266 24.8363 12.404 24.4261C12.6162 24.2959 13.1663 24.1788 13.1663 23.8272L13.1531 23.8468Z" fill="#80BD6F"/>
<path d="M11.6483 24.9469C10.6673 25.3961 10.6143 26.978 10.5215 27.8959C10.4021 29.0156 10.2696 30.3306 10.8462 31.3461C10.9156 31.4762 11.0179 31.5864 11.1433 31.6663C11.2687 31.7461 11.413 31.7928 11.5621 31.8018H11.7345C11.8774 31.8101 12.0192 31.7727 12.1387 31.6953C12.2582 31.6178 12.3489 31.5045 12.3974 31.3721C12.4816 30.9912 12.4374 30.5936 12.2714 30.2394C12.1475 29.6135 12.0963 28.9758 12.119 28.3386C12.0792 27.3491 12.4239 25.982 12.0195 25.0836C12.004 25.0527 11.9824 25.0251 11.956 25.0024C11.9295 24.9798 11.8988 24.9625 11.8655 24.9516C11.8322 24.9407 11.797 24.9364 11.762 24.9389C11.727 24.9415 11.6929 24.9508 11.6616 24.9664L11.6483 24.9469Z" fill="#80BD6F"/>
<path d="M12.3842 25.7019C10.5613 26.2292 13.3254 30.6494 13.8955 31.2679C13.9881 31.3664 14.1051 31.4396 14.2351 31.4805C14.3652 31.5213 14.5038 31.5283 14.6374 31.5007C14.771 31.4732 14.895 31.412 14.9973 31.3233C15.0997 31.2345 15.1768 31.1212 15.2212 30.9944V30.9554C15.4333 30.4867 14.9826 30.07 14.5583 29.9984H14.5053L15.0422 30.2523C13.8955 29.0154 13.2658 27.3164 12.5963 25.8126C12.5767 25.7739 12.5446 25.7427 12.505 25.7239C12.4654 25.705 12.4206 25.6996 12.3775 25.7084L12.3842 25.7019Z" fill="#80BD6F"/>
<path d="M11.9465 20.696C11.403 19.6348 9.40776 20.1231 8.47974 20.2989C7.28659 20.5267 5.23833 21.3535 5.26484 22.8052C5.26484 23.3194 5.86805 23.8728 6.39835 23.5212C6.92864 23.1697 7.1275 22.7335 7.59813 22.4211C8.21853 22.05 8.90813 21.8043 9.6265 21.6985C9.97119 21.6269 12.3906 21.5748 11.9465 20.696V20.696Z" fill="#80BD6F"/>
<path d="M12.2979 20.5006C9.99779 20.2207 7.35296 22.5968 6.74975 24.6864C6.45146 25.728 7.98267 26.5743 8.56599 25.5457C8.99434 24.6875 9.5457 23.8939 10.2033 23.1892C10.9605 22.5113 11.7549 21.8745 12.583 21.2818C12.6469 21.2208 12.6917 21.1431 12.7118 21.0578C12.732 20.9726 12.7267 20.8834 12.6966 20.801C12.6666 20.7186 12.613 20.6465 12.5423 20.5932C12.4716 20.5399 12.3868 20.5078 12.2979 20.5006Z" fill="#80BD6F"/>
<path d="M5.09925 24.7906C5.23901 24.7981 5.37891 24.7784 5.51088 24.7326C5.64285 24.6868 5.76428 24.6158 5.86818 24.5237C6.00806 24.4013 6.11198 24.2444 6.1691 24.0692C6.22623 23.8941 6.23448 23.707 6.19298 23.5277C6.14806 23.3515 6.05994 23.1888 5.93632 23.0538C5.81269 22.9188 5.65731 22.8155 5.48371 22.753C5.30323 22.6946 5.11034 22.6838 4.92425 22.7215C4.73816 22.7592 4.56537 22.8441 4.42312 22.9678C4.28318 23.0931 4.17899 23.2521 4.12086 23.4291C4.06273 23.606 4.05267 23.7949 4.09169 23.9768C4.14425 24.2016 4.26953 24.4037 4.44876 24.5527C4.628 24.7017 4.85156 24.7897 5.08599 24.8036L5.09925 24.7906Z" fill="#80BD6F"/>
<path d="M7.44577 26.8542C7.70035 26.7914 7.92369 26.6413 8.07549 26.431C8.22471 26.206 8.27715 25.9322 8.22133 25.6694V25.6694C8.17314 25.4758 8.06908 25.3 7.92165 25.1631C7.77423 25.0262 7.58969 24.934 7.39021 24.8976C7.19074 24.8611 6.98479 24.882 6.79711 24.9577C6.60942 25.0334 6.44798 25.1607 6.33215 25.3243C6.23042 25.4765 6.17134 25.6523 6.16086 25.834C6.15039 26.0157 6.1889 26.197 6.2725 26.3594C6.37813 26.5607 6.54841 26.722 6.75694 26.8186C6.96548 26.9151 7.20061 26.9413 7.42588 26.8932L7.44577 26.8542Z" fill="#80BD6F"/>
<path d="M7.80361 31.1507C8.08652 31.1615 8.36255 31.0635 8.573 30.8775C8.78345 30.6915 8.9117 30.4322 8.93048 30.1547C8.94317 29.8764 8.84394 29.6044 8.6542 29.3974C8.46445 29.1903 8.19942 29.0649 7.91629 29.0481C7.63294 29.0356 7.35596 29.133 7.14513 29.3194C6.9343 29.5057 6.80654 29.766 6.78942 30.0441C6.77844 30.3219 6.87827 30.593 7.06767 30.7997C7.25708 31.0063 7.5211 31.1323 7.80361 31.1507V31.1507Z" fill="#80BD6F"/>
<path d="M11.9465 32.9994C12.227 33.0101 12.5006 32.9125 12.7087 32.7276C12.9169 32.5426 13.043 32.285 13.0601 32.0099C13.0746 31.7339 12.9776 31.4636 12.7902 31.2575C12.6027 31.0515 12.34 30.9265 12.0592 30.9097C11.7772 30.8955 11.5009 30.9917 11.2909 31.1771C11.0809 31.3626 10.9544 31.6223 10.939 31.8992C10.9263 32.1758 11.0248 32.4461 11.2133 32.652C11.4018 32.8578 11.6652 32.9826 11.9465 32.9994V32.9994Z" fill="#80BD6F"/>
<path d="M15.4334 30.3761C15.2767 30.2761 15.0953 30.2196 14.9086 30.2127C14.7218 30.2059 14.5367 30.2488 14.3728 30.337C14.1655 30.4458 13.9995 30.6172 13.8992 30.826C13.7989 31.0347 13.7697 31.2695 13.816 31.4958C13.8675 31.7193 13.9917 31.9203 14.17 32.0683C14.3482 32.2163 14.5706 32.3033 14.8036 32.316H14.8699C15.1018 32.326 15.3309 32.2624 15.5231 32.1346C15.7153 32.0068 15.8605 31.8216 15.9372 31.6065C16.0217 31.3474 15.9996 31.0662 15.8757 30.8229C15.7519 30.5796 15.536 30.3935 15.2743 30.3045H15.208L15.6654 30.5974C15.5925 30.5323 15.5195 30.4672 15.44 30.4087L15.7582 30.7537C15.6858 30.6108 15.576 30.4895 15.44 30.4021L15.4334 30.3761Z" fill="#80BD6F"/>
<path d="M44.1356 30.747C44.2373 30.7292 44.3357 30.6963 44.4273 30.6494C44.719 30.4541 44.7322 30.4476 44.4737 30.6169C44.67 30.5134 44.8271 30.3503 44.9214 30.1521C45.0158 29.9539 45.0424 29.731 44.9974 29.5167C44.9749 29.4171 44.9393 29.3208 44.8913 29.2303C44.7771 29.0283 44.601 28.8668 44.388 28.7686C44.175 28.6705 43.936 28.6407 43.7048 28.6834H43.6584C43.3804 28.7442 43.1382 28.9103 42.9843 29.1456C42.8303 29.3809 42.7772 29.6663 42.8364 29.9398C42.8999 30.2119 43.0693 30.4488 43.3085 30.5997C43.5476 30.7505 43.8374 30.8035 44.1158 30.747H44.1356Z" fill="#80BD6F"/>
<path d="M48.033 25.2593C47.8145 25.251 47.5975 25.2996 47.4043 25.4002C47.211 25.5008 47.0483 25.6499 46.9327 25.8322C46.7791 26.0667 46.7257 26.3512 46.784 26.6241C46.8423 26.8969 47.0076 27.1363 47.2442 27.2904C47.3821 27.3783 47.5385 27.4342 47.7016 27.4537C47.8647 27.4733 48.0303 27.456 48.1856 27.4033C48.3409 27.3506 48.4819 27.2637 48.5979 27.1494C48.7139 27.0351 48.8018 26.8963 48.855 26.7436C48.9376 26.5027 48.9581 26.2455 48.9146 25.995C48.867 25.7959 48.7557 25.6171 48.597 25.4848C48.4384 25.3524 48.2407 25.2734 48.033 25.2593V25.2593Z" fill="#80BD6F"/>
<path d="M47.4164 23.7685C47.6963 23.7809 47.9699 23.6849 48.1782 23.501C48.3866 23.3171 48.5129 23.0601 48.53 22.7855C48.5409 22.5118 48.4423 22.2447 48.2552 22.0415C48.0682 21.8383 47.8075 21.7151 47.5291 21.6983V21.6983C47.2515 21.6875 46.9805 21.7835 46.7738 21.9659C46.567 22.1482 46.4409 22.4025 46.4221 22.6748C46.4094 22.9496 46.5072 23.2184 46.6945 23.423C46.8818 23.6276 47.1434 23.7517 47.423 23.7685H47.4164Z" fill="#80BD6F"/>
<path d="M32.1574 5.85995C32.605 5.45281 32.9393 4.94005 33.1284 4.37037C33.3175 3.8007 33.3552 3.19302 33.2379 2.60501C33.1191 2.11228 32.81 1.68412 32.376 1.41086C31.9419 1.13759 31.4167 1.04059 30.9112 1.14029C30.4107 1.25838 29.9763 1.56246 29.6994 1.9886C29.4225 2.41473 29.3246 2.9297 29.4264 3.42524C29.5258 3.85489 29.4264 2.96955 29.4264 3.42524C29.4417 3.73096 29.4771 4.03539 29.5324 4.33662C29.6096 4.84659 29.8274 5.32611 30.1622 5.72323C30.2856 5.85862 30.435 5.96876 30.6018 6.04731C30.7687 6.12586 30.9497 6.17127 31.1344 6.18095C31.3192 6.19063 31.5041 6.16438 31.6785 6.10371C31.8529 6.04304 32.0134 5.94913 32.1508 5.82739L32.1574 5.85995Z" fill="#80BD6F"/>
<path d="M35.9162 4.5384C36.2047 4.09646 36.4384 3.6222 36.6122 3.12575C36.8309 2.49856 36.9012 1.83065 36.8177 1.17279C36.7448 0.854086 36.5682 0.567346 36.3147 0.355936C36.0612 0.144526 35.7444 0.01995 35.4124 0.00102012C35.0114 -0.013421 34.6205 0.125926 34.3223 0.38959C34.0241 0.653253 33.8422 1.02053 33.8149 1.41365C33.7758 1.95331 33.8549 2.49493 34.0469 3.00206C34.2375 3.50933 34.4589 4.00496 34.7097 4.48631C34.7672 4.5934 34.8521 4.68395 34.9561 4.749C35.06 4.81406 35.1794 4.85138 35.3026 4.8573C35.4257 4.86321 35.5482 4.8375 35.6582 4.78272C35.7681 4.72794 35.8616 4.64597 35.9294 4.54489L35.9162 4.5384Z" fill="#80BD6F"/>
<path d="M31.3022 3.50976C31.3904 3.51594 31.4789 3.50474 31.5626 3.47682C31.6463 3.44891 31.7234 3.40486 31.7895 3.34723C31.8556 3.28961 31.9093 3.21959 31.9474 3.1413C31.9855 3.063 32.0073 2.97801 32.0115 2.89132C32.0179 2.80207 32.0055 2.7125 31.975 2.62819C31.9446 2.54387 31.8968 2.46661 31.8346 2.40125C31.7724 2.33589 31.6971 2.28382 31.6135 2.2483C31.5299 2.21277 31.4397 2.19456 31.3487 2.19478C31.2583 2.18944 31.1678 2.20232 31.0828 2.23264C30.9977 2.26296 30.9198 2.31006 30.854 2.37105C30.7882 2.43204 30.7358 2.50564 30.7 2.58728C30.6642 2.66892 30.6459 2.75689 30.646 2.84576C30.6406 2.93181 30.6527 3.01804 30.6816 3.09946C30.7104 3.18088 30.7554 3.25584 30.814 3.32004C30.8726 3.38423 30.9436 3.43637 31.0228 3.47341C31.1021 3.51044 31.1881 3.53166 31.2757 3.53581L31.3022 3.50976Z" fill="#4A6F40"/>
<path d="M34.769 1.53073V1.56979C34.7651 1.68764 34.7997 1.80361 34.8677 1.90081C34.9356 1.998 35.0334 2.07134 35.1468 2.11012C35.266 2.15039 35.3954 2.15118 35.5151 2.11238C35.6348 2.07359 35.7383 1.99732 35.8097 1.89528C35.8567 1.82404 35.8865 1.74324 35.897 1.65899C35.9075 1.57474 35.8984 1.48924 35.8703 1.40897C35.8422 1.3287 35.7959 1.25575 35.7348 1.19564C35.6738 1.13554 35.5997 1.08984 35.518 1.06202C35.4353 1.03496 35.3474 1.02689 35.261 1.03844C35.1746 1.04998 35.092 1.08085 35.0197 1.12863C34.9473 1.17642 34.8871 1.23986 34.8437 1.31409C34.8002 1.38831 34.7746 1.47133 34.769 1.55678V1.53073Z" fill="#4A6F40"/>
<path d="M31.5743 2.72216C31.606 2.72216 31.6364 2.7098 31.6588 2.68783C31.6813 2.66585 31.6938 2.63606 31.6938 2.60499C31.6938 2.57391 31.6813 2.5441 31.6588 2.52212C31.6364 2.50015 31.606 2.48779 31.5743 2.48779C31.5426 2.48779 31.5122 2.50015 31.4898 2.52212C31.4674 2.5441 31.4548 2.57391 31.4548 2.60499C31.4548 2.63606 31.4674 2.66585 31.4898 2.68783C31.5122 2.7098 31.5426 2.72216 31.5743 2.72216V2.72216Z" fill="white"/>
<path d="M35.5118 1.56996C35.5396 1.5636 35.5643 1.54826 35.582 1.5264C35.5996 1.50453 35.6093 1.47744 35.6093 1.44953C35.6093 1.42163 35.5996 1.39455 35.582 1.37269C35.5643 1.35083 35.5396 1.33546 35.5118 1.3291C35.4841 1.33546 35.4594 1.35083 35.4417 1.37269C35.4241 1.39455 35.4144 1.42163 35.4144 1.44953C35.4144 1.47744 35.4241 1.50453 35.4417 1.5264C35.4594 1.54826 35.4841 1.5636 35.5118 1.56996Z" fill="white"/>
</svg>
