<svg width="100" height="34" viewBox="0 0 100 34" fill="none" xmlns="http://www.w3.org/2000/svg">
<g clip-path="url(#clip0_144_2459)">
<path d="M1.08805 1.93775C4.89585 0.0494113 10.668 -0.336165 14.3146 0.247144C16.0875 0.514082 17.9713 1.0183 17.6893 2.74845C17.5382 3.82609 16.4805 4.17212 15.3019 4.05348C11.0517 3.45614 6.72609 3.62703 2.53864 4.5577C1.20893 4.86418 0.382898 4.67634 0.141133 4.05348C0.0493991 3.85494 0.00134309 3.63965 2.77464e-05 3.42165C-0.0012876 3.20365 0.0441773 2.98782 0.133509 2.78822C0.222842 2.58862 0.354056 2.40973 0.518522 2.2632C0.682988 2.11666 0.87701 2.00577 1.08805 1.93775ZM18.4347 19.7336C18.4347 20.8805 17.4274 21.3847 16.3596 21.4638C11.9977 21.7703 6.97101 22.1558 2.61925 22.5414C1.44064 22.6601 0.302367 22.314 0.262073 21.0387C0.262073 20.05 0.886617 19.3085 2.38757 19.1503C3.88853 18.9921 5.87298 18.8043 7.76681 18.6461C7.76681 17.6574 7.76682 16.8369 7.83733 15.8383C7.83997 15.4091 8.01491 14.9982 8.32416 14.6947C8.63341 14.3912 9.05207 14.2195 9.4894 14.2169C10.668 14.2169 11.1011 15.1462 11.1011 16.1052C11.1011 16.8764 11.1011 17.6476 11.1011 18.3792C12.7834 18.2309 14.5161 18.1122 16.1379 18.0331C17.5482 17.9639 18.4347 18.6263 18.4347 19.7435V19.7336ZM15.4126 9.74816C16.6315 9.66907 17.8505 10.1337 17.8908 11.3696C17.8908 12.7537 16.1984 13.2184 15.181 13.3469C10.8997 13.7621 7.05158 13.9203 2.65952 14.0785C1.31974 14.0785 0.644864 13.3765 0.57435 12.6845C0.51125 12.2232 0.636918 11.7561 0.923886 11.3855C1.21085 11.0149 1.63571 10.771 2.10549 10.7072C2.89122 10.6281 3.67698 10.549 4.46272 10.5094C4.21661 9.38143 4.085 8.23226 4.06984 7.07878C4.06984 6.09013 4.3418 4.88396 5.5607 4.80487C7.29335 4.69611 7.29338 5.92205 7.29338 7.19742C7.24735 8.23098 7.3251 9.26628 7.52505 10.282C8.43167 10.2029 9.32822 10.1239 10.2348 10.0843C10.5689 8.79339 10.688 7.45792 10.5874 6.12967C10.5406 5.91228 10.5498 5.68686 10.6143 5.47386C10.6787 5.26085 10.7963 5.067 10.9564 4.90988C11.1164 4.75277 11.3139 4.63737 11.531 4.57414C11.748 4.51092 11.9777 4.50186 12.1992 4.54781C13.3375 4.6269 13.7707 5.31897 13.9218 6.43615C14.0104 7.58878 13.9049 8.74786 13.6095 9.8668L15.4126 9.74816ZM9.4894 23.975C12.9043 23.975 14.7881 25.8633 14.9492 28.8293C14.9654 29.5022 14.8441 30.1714 14.5925 30.7976C14.3409 31.4238 13.9642 31.9941 13.4845 32.4751C13.0047 32.9561 12.4317 33.3379 11.7992 33.5981C11.1667 33.8583 10.4875 33.9916 9.80168 33.9901C6.62852 33.9901 4.54327 32.0128 4.42239 29.3335C4.36346 28.6478 4.45106 27.9575 4.67957 27.307C4.90809 26.6564 5.27249 26.0598 5.74946 25.5554C6.22642 25.051 6.80549 24.6499 7.44949 24.3777C8.09349 24.1056 8.78827 23.9684 9.4894 23.975ZM9.61028 26.8619C9.29599 26.8556 8.9842 26.9178 8.69737 27.0441C8.41054 27.1704 8.15583 27.3575 7.95157 27.592C7.7473 27.8265 7.5986 28.1026 7.51614 28.4003C7.43368 28.698 7.41951 29.01 7.4747 29.3137C7.566 29.8277 7.84163 30.2926 8.25179 30.6244C8.66196 30.9562 9.17954 31.1331 9.71099 31.123C10.0007 31.1329 10.2894 31.0837 10.5587 30.9785C10.8281 30.8733 11.0723 30.7144 11.2758 30.5118C11.4794 30.3092 11.6379 30.0674 11.7414 29.8016C11.8448 29.5358 11.8909 29.2519 11.8768 28.9677C11.8998 28.6715 11.8546 28.374 11.7443 28.0973C11.6341 27.8207 11.4617 27.5719 11.2401 27.3696C11.0185 27.1673 10.7532 27.0166 10.4641 26.9287C10.175 26.8408 9.86937 26.8179 9.57001 26.8619H9.61028Z" fill="#6C7B77"/>
<path d="M20.8323 9.71853C20.6812 8.98693 21.2251 7.98838 22.847 7.56326C25.8424 6.79328 28.9569 6.57208 32.034 6.91074C33.2932 7.09858 33.9581 7.79065 34.0487 8.71999C34.1394 9.64933 33.4242 10.3809 31.9635 10.3018C30.0498 10.2189 28.1323 10.295 26.2317 10.5292C25.788 11.9116 25.6439 13.3698 25.8086 14.8101C25.8377 15.3515 26.0699 15.8632 26.4605 16.2465C26.8511 16.6299 27.3724 16.8578 27.924 16.8863C29.767 16.9545 31.5954 16.5417 33.2227 15.69C34.4819 15.1562 35.6202 15.3045 36.0534 16.1943C36.1667 16.4751 36.2218 16.7752 36.2156 17.0772C36.2094 17.3792 36.142 17.6769 36.0173 17.953C35.8926 18.2291 35.713 18.4781 35.4892 18.6854C35.2654 18.8926 35.0017 19.0541 34.7136 19.1602C32.7042 20.1697 30.444 20.5983 28.196 20.3961C24.1666 20.0896 22.4642 17.5784 22.5448 14.2268C22.5853 13.0469 22.8095 11.8799 23.2096 10.7665C22.7523 10.9288 22.2485 10.9102 21.8049 10.7146C21.3612 10.5191 21.0125 10.1619 20.8323 9.71853ZM37.3226 21.5132C37.953 21.5132 38.5771 21.6361 39.1586 21.875C39.7401 22.1138 40.2675 22.4637 40.7099 22.9044C41.1524 23.3451 41.5011 23.8677 41.7358 24.4419C41.9706 25.0161 42.0867 25.6303 42.0773 26.2489C42.0773 29.5214 39.559 31.0241 36.9298 30.9846C33.7163 30.9846 32.2657 28.4833 32.3765 26.0413C32.3822 25.4203 32.5166 24.807 32.7714 24.2386C33.0263 23.6702 33.3963 23.1586 33.859 22.735C34.3217 22.3114 34.8674 21.9847 35.4628 21.7746C36.0583 21.5646 36.6911 21.4757 37.3226 21.5132ZM39.1661 26.3478C39.188 25.8459 39.0062 25.3559 38.6607 24.9853C38.3151 24.6146 37.834 24.3936 37.3226 24.3705C37.0535 24.353 36.7835 24.3922 36.531 24.4853C36.2785 24.5785 36.0492 24.7236 35.8585 24.9108C35.6677 25.098 35.52 25.3231 35.425 25.5709C35.3301 25.8187 35.2901 26.0836 35.3079 26.3478C35.2511 26.8157 35.3856 27.2867 35.6821 27.6574C35.9786 28.0281 36.4128 28.2682 36.8895 28.3251C37.1769 28.3726 37.4715 28.3563 37.7517 28.2776C38.032 28.1989 38.2906 28.0596 38.5089 27.87C38.7272 27.6805 38.8995 27.4454 39.0132 27.182C39.1269 26.9186 39.1792 26.6336 39.1661 26.3478ZM41.4427 20.9497C39.3272 20.8706 38.1487 19.5656 38.5416 17.5191C39.5156 13.1632 39.608 8.66188 38.8135 4.27102C38.7598 4.08097 38.7833 3.87788 38.8792 3.70453C38.975 3.53118 39.1357 3.4011 39.3273 3.34168C40.5462 3.11429 41.5636 3.96454 42.2687 5.319C43.1197 7.07707 43.6515 8.9674 43.8402 10.9049C44.6707 10.5921 45.5599 10.4576 46.4479 10.5104C47.3358 10.5633 48.2019 10.8023 48.9878 11.2114C49.2053 11.3586 49.3732 11.566 49.4701 11.8073C49.567 12.0485 49.5885 12.3126 49.5318 12.5659C49.421 13.0305 48.9072 13.3766 47.9603 13.1788C46.6696 12.848 45.3091 12.8892 44.0417 13.2975C44.117 15.2112 44.0497 17.1277 43.8402 19.0317C43.7395 20.5444 43.0545 21.009 41.4427 20.9695V20.9497Z" fill="#6C7B77"/>
<path d="M51.506 1.93775C55.3037 0.0494113 61.0758 -0.336165 64.7325 0.247144C66.4954 0.514082 68.3791 1.0183 68.1071 2.74845C67.946 3.82609 66.8882 4.17212 65.7096 4.05348C61.4629 3.45624 57.1406 3.62713 52.9566 4.5577C51.6168 4.86418 50.7907 4.67634 50.5591 4.05348C50.4657 3.85515 50.4163 3.63962 50.4141 3.42115C50.412 3.20268 50.4572 2.98625 50.5468 2.78622C50.6363 2.58618 50.7681 2.4071 50.9334 2.26083C51.0988 2.11455 51.294 2.00443 51.506 1.93775ZM68.8526 19.7336C68.8526 20.8805 67.8452 21.3847 66.7673 21.4638C62.4156 21.7703 57.3889 22.1558 53.027 22.5414C51.8585 22.6601 50.7101 22.314 50.6799 21.0387C50.6799 20.05 51.3045 19.3085 52.7953 19.1503C54.4474 18.9921 56.2909 18.8043 58.1746 18.6461C58.1746 17.6574 58.1746 16.8369 58.2552 15.8383C58.2578 15.4108 58.4314 15.0013 58.7385 14.6981C59.0455 14.3949 59.4616 14.2221 59.8972 14.2169C61.0758 14.2169 61.509 15.1462 61.509 16.1052C61.509 16.8764 61.509 17.6476 61.509 18.3792C63.2013 18.2309 64.9239 18.1122 66.5458 18.0331C67.9158 17.9639 68.8526 18.6263 68.8526 19.7435V19.7336ZM65.8305 9.74816C67.0494 9.66907 68.2683 10.1337 68.2985 11.3696C68.2985 12.7537 66.6163 13.2184 65.5988 13.3469C61.3176 13.7621 57.4695 13.9203 53.0674 14.0785C51.7376 14.0785 51.0526 13.3765 50.9922 12.6845C50.9596 12.4559 50.9734 12.2232 51.0328 11.9998C51.0922 11.7764 51.1961 11.5668 51.3384 11.383C51.4807 11.1992 51.6587 11.0449 51.8621 10.9289C52.0655 10.8129 52.2902 10.7375 52.5233 10.7072C53.3091 10.6281 54.0948 10.549 54.8806 10.5094C54.6295 9.38223 54.4978 8.23257 54.4877 7.07878C54.4877 6.09013 54.7597 4.88396 55.9786 4.80487C57.7012 4.69611 57.7012 5.92205 57.7012 7.19742C57.654 8.23144 57.7352 9.26726 57.9429 10.282C58.8395 10.2029 59.7461 10.1239 60.6527 10.0843C60.9818 8.79257 61.1008 7.45788 61.0053 6.12967C60.9564 5.91289 60.9637 5.68751 61.0266 5.47424C61.0896 5.26098 61.2062 5.06667 61.3657 4.90917C61.5251 4.75167 61.7224 4.63603 61.9393 4.57289C62.1562 4.50975 62.3858 4.50113 62.607 4.54781C63.7453 4.6269 64.1785 5.31897 64.3396 6.43615C64.4283 7.58878 64.3228 8.74786 64.0274 9.8668L65.8305 9.74816ZM59.8569 23.975C63.2718 23.975 65.1556 25.8633 65.3067 28.8293C65.3242 29.5017 65.2041 30.1707 64.9537 30.7969C64.7032 31.423 64.3275 31.9935 63.8485 32.4746C63.3696 32.9557 62.7972 33.3377 62.1652 33.598C61.5332 33.8583 60.8545 33.9916 60.1692 33.9901C56.9859 33.9901 54.9007 32.0128 54.7899 29.3335C54.731 28.6478 54.8186 27.9575 55.0471 27.307C55.2756 26.6564 55.64 26.0598 56.117 25.5554C56.5939 25.051 57.173 24.6499 57.817 24.3777C58.461 24.1056 59.1558 23.9684 59.8569 23.975ZM59.9677 26.8619C59.6537 26.8553 59.3421 26.9174 59.0556 27.0438C58.7692 27.1701 58.515 27.3574 58.3114 27.5922C58.1079 27.827 57.9602 28.1033 57.879 28.401C57.7979 28.6988 57.7853 29.0106 57.8422 29.3137C57.9296 29.8295 58.2041 30.2968 58.6152 30.6293C59.0262 30.9619 59.546 31.1372 60.0785 31.123C60.3678 31.133 60.656 31.0838 60.9249 30.9785C61.1937 30.8732 61.4373 30.7141 61.6401 30.5114C61.8429 30.3086 62.0004 30.0667 62.1027 29.8009C62.205 29.5352 62.2498 29.2514 62.2343 28.9677C62.2559 28.6762 62.2114 28.3837 62.104 28.1111C61.9966 27.8385 61.829 27.5927 61.6132 27.3913C61.3974 27.19 61.1388 27.038 60.856 26.9465C60.5732 26.8549 60.2733 26.826 59.9778 26.8619H59.9677Z" fill="#6C7B77"/>
<path d="M71.2499 9.71853C71.0887 8.98693 71.6428 7.98838 73.2646 7.56326C76.26 6.79328 79.3745 6.57208 82.4517 6.91074C83.7008 7.09858 84.3757 7.79065 84.4664 8.71999C84.557 9.64933 83.8317 10.3809 82.3811 10.3018C80.4674 10.2189 78.55 10.295 76.6493 10.5292C76.2025 11.911 76.055 13.3691 76.2161 14.8101C76.2498 15.3516 76.4849 15.8622 76.8767 16.2449C77.2685 16.6276 77.7897 16.8558 78.3416 16.8863C80.1844 16.9522 82.0122 16.5395 83.6403 15.69C84.8895 15.1562 86.0278 15.3045 86.4609 16.1943C86.5759 16.4743 86.6326 16.7741 86.6278 17.076C86.6229 17.3779 86.5567 17.6758 86.4328 17.9522C86.3089 18.2285 86.1298 18.4778 85.9063 18.6853C85.6828 18.8927 85.4193 19.0542 85.1313 19.1602C83.1218 20.1697 80.8616 20.5983 78.6137 20.3961C74.5842 20.0896 72.8818 17.5784 72.9624 14.2268C73.003 13.0469 73.2271 11.8799 73.6272 10.7665C72.3479 10.9544 71.4111 10.4106 71.2499 9.71853ZM87.7403 21.5132C88.3698 21.5145 88.9928 21.6384 89.5732 21.8778C90.1535 22.1172 90.6797 22.4674 91.121 22.9079C91.5624 23.3485 91.9102 23.8706 92.1444 24.4442C92.3785 25.0177 92.4943 25.6311 92.4849 26.2489C92.4849 29.5214 89.9766 31.0241 87.3474 30.9846C84.1239 30.9846 82.6733 28.4833 82.7942 26.0413C82.7984 25.4199 82.9318 24.8059 83.1862 24.2368C83.4405 23.6678 83.8106 23.1556 84.2736 22.7318C84.7366 22.3079 85.2828 21.9812 85.8789 21.7717C86.475 21.5622 87.1084 21.4742 87.7403 21.5132ZM89.5837 26.3478C89.6056 25.8459 89.4238 25.3559 89.0783 24.9853C88.7327 24.6146 88.2516 24.3936 87.7403 24.3705C87.4711 24.353 87.2012 24.3922 86.9487 24.4853C86.6962 24.5785 86.4669 24.7236 86.2762 24.9108C86.0854 25.098 85.9376 25.3231 85.8426 25.5709C85.7477 25.8187 85.7078 26.0836 85.7256 26.3478C85.6873 26.587 85.6993 26.8314 85.7606 27.0659C85.8219 27.3004 85.9314 27.5202 86.0823 27.7118C86.2332 27.9034 86.4223 28.0627 86.6381 28.1801C86.8539 28.2974 87.0919 28.3703 87.3374 28.3943C87.6288 28.4385 87.9265 28.4173 88.2084 28.3325C88.4903 28.2477 88.749 28.1014 88.9651 27.9045C89.1812 27.7076 89.3491 27.4653 89.4562 27.1957C89.5634 26.9261 89.607 26.6363 89.5837 26.3478ZM91.8604 20.9497C89.7449 20.8706 88.5663 19.5656 88.9592 17.5191C89.9283 13.1626 90.0206 8.66226 89.2311 4.27102C89.1747 4.08093 89.1971 3.87667 89.2933 3.70265C89.3895 3.52863 89.5518 3.39892 89.7449 3.34168C90.9537 3.11429 91.9813 3.96454 92.6864 5.319C93.5281 7.08043 94.0595 8.96916 94.2579 10.9049C95.0867 10.5923 95.9742 10.4579 96.8605 10.5107C97.7468 10.5636 98.6112 10.8026 99.3954 11.2114C99.6137 11.3582 99.7829 11.5652 99.8815 11.8063C99.9801 12.0473 100.004 12.3116 99.9494 12.5659C99.8285 13.0305 99.3148 13.3766 98.3779 13.1788C97.0838 12.8483 95.7202 12.8895 94.4493 13.2975C94.5288 15.2109 94.4649 17.1275 94.2579 19.0317C94.1068 20.5444 93.4721 21.009 91.8604 20.9695V20.9497Z" fill="#6C7B77"/>
</g>
<defs>
<clipPath id="clip0_144_2459">
<rect width="100" height="34" fill="white"/>
</clipPath>
</defs>
</svg>
