<svg width="76" height="74" viewBox="0 0 76 74" fill="none" xmlns="http://www.w3.org/2000/svg">
<path d="M1.2125 57.128C1.2125 59.256 2.5565 60.664 4.7005 60.664C5.8685 60.664 7.2445 59.944 7.9005 58.92C8.6685 58.92 9.4525 58.872 10.2365 58.84C10.5885 58.84 10.9405 58.856 11.2925 58.84C11.3085 59.384 11.3405 59.928 11.3405 60.472C11.3405 61.032 11.3405 61.528 11.3405 62.072C11.3405 62.456 11.6445 62.712 12.0125 62.712C12.1725 62.712 12.3165 62.648 12.4445 62.568C12.8125 62.344 12.8125 62.056 12.8125 61.672C12.8285 61.48 12.8285 61.272 12.8285 61.064C12.8285 60.072 12.7645 59.144 12.7485 58.152C12.7325 57.464 12.7485 53.592 12.6205 53.272C12.5085 53.016 12.2685 52.872 11.9805 52.872C11.5805 52.872 11.1805 53.224 11.1805 53.64C11.1805 53.912 11.1965 54.2 11.2125 54.472C11.0845 54.472 10.9565 54.488 10.8125 54.488L9.9965 54.52C9.8685 54.52 9.7245 54.536 9.5805 54.536C8.9885 54.568 8.3645 54.536 7.7725 54.616C7.1325 53.64 6.0445 53.064 4.6205 53.064C4.3005 53.064 3.8205 53.112 3.5325 53.208C2.6045 53.512 1.7565 54.6 1.4525 55.512C1.2765 56.04 1.2125 56.584 1.2125 57.128ZM4.4765 54.472C6.0445 54.472 6.9085 55.448 6.9085 56.984C6.9085 57.304 6.8125 57.912 6.6845 58.184C6.3645 58.808 5.5165 59.272 4.8445 59.272C3.4205 59.272 2.7005 58.344 2.7005 56.984C2.7005 56.136 2.8925 55.384 3.5165 54.776C3.6445 54.664 3.7565 54.552 3.9165 54.504C4.0765 54.472 4.3165 54.472 4.4765 54.472ZM11.2605 57.416C10.7325 57.432 10.1885 57.464 9.6445 57.48C9.2125 57.48 8.7645 57.464 8.3325 57.496C8.3645 57.288 8.3805 57.064 8.3805 56.872C8.3805 56.568 8.3485 56.264 8.3005 55.992C8.4445 55.992 8.5725 55.976 8.7165 55.976L9.5485 55.944C9.6925 55.944 9.8205 55.928 9.9645 55.928C10.3805 55.912 10.8125 55.912 11.2445 55.896C11.2445 55.944 11.2445 55.976 11.2445 56.024L11.2605 57.416ZM4.6685 67.304C5.0365 67.304 5.4205 67.288 5.7885 67.272C6.2685 67.256 6.7485 67.256 7.2285 67.256C7.6605 67.256 8.0925 67.256 8.5085 67.256L11.0525 67.304C11.4845 67.304 11.9005 67.304 12.3165 67.304C12.7165 67.304 13.1165 66.952 13.1165 66.536C13.1165 65.816 12.3005 65.88 11.8045 65.88C11.7405 65.88 11.6765 65.88 11.5965 65.88L11.1645 65.896C11.1005 65.896 11.0205 65.896 10.9405 65.896C9.8685 65.896 8.7965 65.864 7.7085 65.864C7.1165 65.864 6.5085 65.864 5.9165 65.88C5.8205 65.88 5.7405 65.88 5.6445 65.88L5.1005 65.912C5.0045 65.912 4.9245 65.912 4.8285 65.912C4.7645 65.912 4.6525 65.912 4.5885 65.864C4.3645 65.704 4.2685 63.784 4.2685 63.416C4.2365 62.856 4.3485 62.008 3.5485 62.008C3.1485 62.008 2.7485 62.36 2.7485 62.776C2.7485 63.384 2.7965 63.976 2.8445 64.584C2.9245 65.848 3.0205 67.304 4.6685 67.304ZM17.1595 53.816C17.1595 54.872 17.1915 55.944 17.4315 56.968C17.4955 57.24 17.5595 57.528 17.6875 57.784C18.1195 58.6 19.1595 58.568 19.9595 58.6C20.2155 58.6 20.4715 58.616 20.7275 58.616V60.136C20.4075 60.136 20.1035 60.152 19.7835 60.152C18.8715 60.168 17.9595 60.184 17.0635 60.2C16.6795 60.2 16.2795 60.184 15.8955 60.2C15.4315 60.232 14.9835 60.424 14.9835 60.968C14.9835 61.352 15.2875 61.608 15.6555 61.608C18.3755 61.608 21.0955 61.528 23.7995 61.464C24.7115 61.448 25.6235 61.432 26.5195 61.416C26.9035 61.416 27.3035 61.432 27.6875 61.416C28.1515 61.384 28.5995 61.176 28.5995 60.648C28.5995 60.264 28.2955 60.008 27.9275 60.008C26.0075 60.008 24.1035 60.04 22.1995 60.088V58.632C22.2155 58.632 22.2155 58.632 22.2315 58.632C23.1275 58.632 24.0235 58.6 24.9035 58.6C25.3995 58.6 25.8955 58.552 26.0875 58.024C26.1675 57.784 26.1995 57.496 26.2475 57.24C26.3915 56.36 26.5035 55.48 26.5035 54.568C26.5035 52.792 25.4155 52.968 24.0395 52.936C23.2075 52.92 22.3915 52.904 21.5595 52.904C20.8875 52.904 18.0555 52.904 17.6235 53.128C17.3515 53.272 17.1595 53.512 17.1595 53.816ZM18.6475 54.376C19.5755 54.312 20.5035 54.296 21.4315 54.296C22.1995 54.296 22.9835 54.312 23.7675 54.328C24.1675 54.328 24.5995 54.328 24.9995 54.376C25.0155 54.488 25.0155 54.6 25.0155 54.712C25.0155 55.544 24.9195 56.376 24.7755 57.192C23.9755 57.224 23.1755 57.24 22.3755 57.24C21.5915 57.24 20.8235 57.24 20.0555 57.192C19.7995 57.176 19.5275 57.176 19.2875 57.144C19.2715 57.144 19.2395 57.128 19.2235 57.128L19.1115 57.096C19.0955 57.096 19.0635 57.08 19.0475 57.08C19.0315 57 18.9835 56.92 18.9515 56.84C18.8875 56.648 18.8555 56.456 18.8075 56.248C18.6955 55.64 18.6475 55 18.6475 54.376ZM16.7595 66.824C16.7595 67.208 17.0635 67.464 17.4315 67.464C17.6875 67.464 18.2475 67.192 18.5035 67.064C19.7515 66.456 20.7115 65.8 21.5595 64.888C21.6555 64.952 21.7515 65 21.8315 65.048C22.6475 65.608 25.5915 67.496 26.4395 67.496C26.8395 67.496 27.2395 67.144 27.2395 66.728C27.2395 66.568 27.1755 66.408 27.0635 66.28C26.8875 66.104 26.5835 66.056 26.3595 65.96C25.3515 65.56 24.0075 64.712 23.0955 64.104C22.9035 63.992 22.7115 63.816 22.5195 63.672C22.5675 63.592 22.6315 63.512 22.6795 63.432C22.8395 63.176 23.0955 62.888 23.0955 62.584C23.0955 62.2 22.7915 61.944 22.4235 61.944C21.9915 61.944 21.7995 62.232 21.5755 62.568C20.9995 63.464 20.3915 64.248 19.5275 64.904C18.9355 65.336 18.2795 65.704 17.5915 65.992C17.1915 66.152 16.7595 66.296 16.7595 66.824ZM44.2886 56.44C44.2886 56.344 44.2886 56.264 44.2886 56.168L44.3206 54.36C44.3206 54.056 44.3206 53.752 44.3206 53.448C44.3206 53.064 44.0166 52.808 43.6486 52.808C43.2646 52.808 42.9286 53.096 42.8486 53.464C42.8006 53.672 42.8326 53.88 42.8326 54.088C42.8326 54.376 42.8326 54.648 42.8326 54.936L42.8166 56.648V58.472C42.8166 59.848 42.8486 62.072 42.9606 62.296C43.0886 62.536 43.3126 62.68 43.5846 62.68C44.0006 62.68 44.3846 62.328 44.3846 61.912C44.3846 61.512 44.3526 61.096 44.3366 60.696C44.3046 59.752 44.2886 58.792 44.2886 57.848H46.4166C46.8806 57.848 47.3766 57.624 47.3766 57.08C47.3766 56.696 47.0726 56.44 46.7046 56.44H44.2886ZM34.8646 53.192C33.9686 53.192 33.4406 53.672 33.4406 54.584C33.4406 55 33.4726 55.416 33.5046 55.832C33.5846 57.08 33.6806 58.328 33.7766 59.576C33.8406 60.424 34.1926 60.376 34.9126 60.408C35.7286 60.44 36.5446 60.456 37.3606 60.456C39.2806 60.456 40.3366 60.392 40.3366 58.12V57.704C40.3366 56.888 40.3366 54.712 40.0166 54.04C39.8726 53.72 39.6326 53.496 39.2966 53.368C38.9446 53.24 38.2886 53.256 37.9046 53.256C36.8966 53.256 35.8726 53.192 34.8646 53.192ZM38.6246 54.68V54.664C38.8326 55.24 38.8486 56.696 38.8486 57.352C38.8486 57.72 38.8966 58.696 38.8006 59C38.4966 59.064 38.1606 59.048 37.8566 59.048C36.9766 59.048 36.0966 59.032 35.2166 59.016C35.1046 57.544 34.9606 56.072 34.9286 54.6C35.5526 54.6 36.1766 54.616 36.7846 54.632L38.6246 54.68ZM36.8006 67.304C37.1686 67.304 37.5526 67.288 37.9206 67.272C38.4006 67.256 38.8806 67.256 39.3606 67.256C39.7926 67.256 40.2246 67.256 40.6406 67.256L43.1846 67.304C43.6166 67.304 44.0326 67.304 44.4486 67.304C44.8646 67.304 45.2486 66.952 45.2486 66.536C45.2486 65.816 44.4326 65.88 43.9366 65.88C43.8726 65.88 43.8086 65.88 43.7286 65.88L43.2966 65.896H42.2726L40.6406 65.864C40.3686 65.864 40.1126 65.864 39.8406 65.864C39.2326 65.864 38.6566 65.864 38.0486 65.88C37.6966 65.88 37.3286 65.912 36.9606 65.912C36.8966 65.912 36.8006 65.912 36.7366 65.88C36.3846 65.704 36.4486 62.92 36.3366 62.456C36.2726 62.152 35.9846 61.96 35.6806 61.96C35.2646 61.96 34.8806 62.312 34.8806 62.728C34.8806 63.384 34.9286 64.008 34.9766 64.6C35.0566 65.832 35.0886 67.304 36.8006 67.304ZM57.7556 52.952H50.3956C49.9956 52.952 49.5956 53.304 49.5956 53.72C49.5956 54.024 49.6276 54.328 49.6436 54.648C49.6756 55.272 49.7076 55.736 49.7236 56.376C49.7396 56.712 49.7556 57.48 49.8996 57.752C49.9956 57.944 50.1716 58.056 50.3476 58.12C50.8756 58.344 52.3956 58.344 53.0196 58.344C53.7876 58.344 58.1396 58.328 58.5236 58.168C58.8116 58.056 59.0356 57.784 59.0356 57.464C59.0356 57.08 58.7316 56.824 58.3636 56.824C57.9156 56.824 57.4836 56.856 57.0356 56.872C55.7396 56.92 54.4436 56.952 53.1636 56.952C52.5236 56.952 51.8836 56.936 51.2436 56.856C51.2116 56.552 51.2116 56.264 51.1956 55.96L51.1156 54.36C51.5956 54.36 52.0916 54.36 52.5716 54.36L55.4676 54.376C55.9476 54.376 56.4436 54.376 56.9236 54.376C57.1636 54.376 57.6756 54.376 57.8836 54.312C58.1876 54.2 58.4276 53.928 58.4276 53.592C58.4276 53.208 58.1236 52.952 57.7556 52.952ZM53.2116 60.616C54.6676 60.616 56.1236 60.616 57.5796 60.568C58.4436 60.552 59.3236 60.52 60.2036 60.52C60.6036 60.52 61.0036 60.168 61.0036 59.752C61.0036 59.256 60.5876 59.112 60.1716 59.112C59.3556 59.112 58.5396 59.144 57.7076 59.16C56.2676 59.208 54.8116 59.224 53.3556 59.224C52.2516 59.224 51.1316 59.208 50.0276 59.176C49.4036 59.16 48.7796 59.096 48.1556 59.096C47.7556 59.096 47.3556 59.448 47.3556 59.864C47.3556 60.152 47.4996 60.328 47.7396 60.44C48.0276 60.584 52.5236 60.616 53.2116 60.616ZM56.6676 62.808C56.8756 62.808 57.0836 62.824 57.2756 62.84C57.2756 63.128 57.2596 63.368 57.2436 63.672C55.1476 63.72 53.0356 63.752 50.9396 63.752C50.3796 63.752 49.7876 64.04 49.7876 64.68C49.7876 65 49.8516 65.32 49.8836 65.624C49.8996 65.832 49.9156 66.04 49.9636 66.232C50.1876 67.192 50.8596 67.32 51.7236 67.368C52.3956 67.416 53.0836 67.416 53.7556 67.416C54.5556 67.416 58.3636 67.384 58.8436 67.16C59.1156 67.048 59.3236 66.776 59.3236 66.472C59.3236 66.088 59.0196 65.832 58.6516 65.832C58.4756 65.832 58.2996 65.864 58.1236 65.88C57.7876 65.912 57.4356 65.928 57.0836 65.944C56.0276 66.008 54.9556 66.024 53.8996 66.024C53.2916 66.024 52.6836 66.024 52.0756 65.976C52.0276 65.976 51.9636 65.976 51.9156 65.976L51.6116 65.928C51.5636 65.928 51.4996 65.928 51.4516 65.928C51.3716 65.672 51.3556 65.416 51.3396 65.16L55.5636 65.096C56.2036 65.08 57.0516 65.144 57.6436 65.016C57.9316 64.952 58.1876 64.84 58.3796 64.616C58.7796 64.184 58.7636 63.272 58.7636 62.696C58.7636 61.688 58.2996 61.464 57.3716 61.432C57.0196 61.416 56.6676 61.416 56.3156 61.416C55.4836 61.416 50.3636 61.576 49.9476 61.768C49.6756 61.88 49.4676 62.152 49.4676 62.456C49.4676 62.84 49.7716 63.096 50.1396 63.096C50.3636 63.096 50.6036 63.064 50.8436 63.048C51.2596 63.016 51.6756 62.984 52.0916 62.968C53.6276 62.872 55.1476 62.808 56.6676 62.808ZM72.6485 64.12L72.6005 65.72C72.6005 65.992 72.6005 66.248 72.6005 66.52C72.6005 66.904 72.9045 67.16 73.2725 67.16C73.6565 67.16 73.9765 66.888 74.0725 66.504C74.1045 66.36 74.0885 66.168 74.0885 66.008C74.0885 65.08 74.1365 64.136 74.1365 63.192C74.1365 60.504 74.0725 57.8 73.9925 55.112C73.9925 54.824 73.9765 53.64 73.9125 53.464C73.8165 53.192 73.5605 53.032 73.2725 53.032C72.8725 53.032 72.4725 53.384 72.4725 53.8C72.4725 54.856 72.5365 55.912 72.5685 56.968C72.6485 59.352 72.6485 61.736 72.6485 64.12ZM62.7765 55.224C63.8005 55.224 64.8405 55.208 65.8645 55.16C66.3285 55.144 66.7925 55.112 67.2565 55.112H67.5445C67.6405 55.112 67.7365 55.112 67.8325 55.128C67.8485 55.208 67.8645 55.288 67.8645 55.384C67.8645 55.976 67.7045 56.568 67.5445 57.144C66.9685 59.192 66.0565 61.112 64.6645 62.744C64.3125 63.144 63.9285 63.544 63.5285 63.896C63.3525 64.04 63.1445 64.152 63.0005 64.328C62.8885 64.456 62.8085 64.632 62.8085 64.808C62.8085 65.192 63.1125 65.448 63.4805 65.448C63.9285 65.448 64.4245 64.904 64.7445 64.616C66.8245 62.696 68.2165 60.136 68.9685 57.432C69.1765 56.712 69.3525 55.976 69.3525 55.224C69.3525 54.968 69.2885 54.712 69.1925 54.472C68.8885 53.704 68.1045 53.704 67.4005 53.704C66.6485 53.704 65.8965 53.768 65.1605 53.8C64.7925 53.8 64.4405 53.8 64.0725 53.8C63.7685 53.8 62.8725 53.784 62.6165 53.88C62.3285 53.992 62.1045 54.264 62.1045 54.584C62.1045 54.968 62.4085 55.224 62.7765 55.224Z" fill="#7C9A92"/>
<path d="M65.9434 22.3321C65.9434 30.4835 52.3789 41.2022 38.4717 37.0916C23.9577 32.8031 11 30.4854 11 22.3321C11 14.1789 15.5221 6 30.6941 6C37.5075 6 41.509 9.85365 48.5607 12.6631C57.2053 16.1296 65.9434 12.0557 65.9434 22.3321Z" fill="#A9CCE7"/>
<path d="M60.776 22.2605C60.776 28.4906 49.7778 36.6842 38.4716 33.5407C26.687 30.2633 16.1672 28.4906 16.1672 22.2605C16.1672 16.0305 19.8333 9.78204 32.1568 9.78204C37.6889 9.78204 40.9407 12.7182 46.6635 14.8762C53.6821 17.515 60.776 14.3973 60.776 22.2605Z" fill="#BED7EA"/>
</svg>
