<svg width="42" height="42" viewBox="0 0 42 42" fill="none" xmlns="http://www.w3.org/2000/svg">
<g clip-path="url(#clip0_99_5407)">
<path d="M18.4268 6.49383V6.53694L18.4305 6.5799C18.478 7.13026 18.7423 7.63764 19.1627 7.99334C19.5648 8.33345 20.079 8.50925 20.6025 8.48961C21.1279 8.50907 21.6438 8.33173 22.0463 7.98916C22.4671 7.63095 22.7301 7.12055 22.7746 6.56804L22.7779 6.52791V6.48766V2.16389V2.12078L22.7741 2.07783C22.7266 1.52746 22.4623 1.02008 22.0419 0.664385C21.6399 0.324318 21.1257 0.14853 20.6023 0.1681C20.0789 0.148529 19.5647 0.324322 19.1627 0.664385C18.7423 1.02008 18.478 1.52746 18.4305 2.07783L18.4268 2.12078V2.16389V6.49383Z" fill="#ECB84B" stroke="white" stroke-width="2"/>
<path d="M18.4268 38.7553C18.4268 40.0397 19.6422 40.6818 20.6023 40.6818C21.5624 40.6818 22.7779 40.0398 22.7779 38.7553V34.7712C22.7779 33.4868 21.5624 32.8447 20.6023 32.8447C19.6328 32.8447 18.4268 33.5065 18.4268 34.7712V38.7553Z" fill="#ECB84B" stroke="white" stroke-width="2"/>
<path d="M34.8212 22.5961H38.7594C40.0324 22.5961 40.6668 21.3789 40.6668 20.4317C40.6668 19.4808 40.0294 18.2705 38.7594 18.2705H34.8212C33.5512 18.2705 32.9138 19.4808 32.9138 20.4317C32.9138 21.3789 33.5483 22.5961 34.8212 22.5961Z" fill="#ECB84B" stroke="white" stroke-width="2"/>
<path d="M29.6646 11.8091L30.3683 11.0986L29.6646 11.8091C30.0365 12.1774 30.5133 12.4221 31.0142 12.4869C31.5155 12.5516 32.1005 12.436 32.5419 11.9963L35.3284 9.23648C36.2385 8.33503 35.8065 7.02284 35.1381 6.36087C34.4718 5.70087 33.1638 5.2763 32.259 6.17247L29.4744 8.93041C28.5597 9.8364 28.9982 11.149 29.6646 11.8091Z" fill="#ECB84B" stroke="white" stroke-width="2"/>
<path d="M8.9549 35.3613L8.95491 35.3613L8.95843 35.3578L11.7416 32.5981C12.1877 32.1586 12.3067 31.5714 12.2404 31.0669C12.1743 30.5638 11.925 30.0875 11.5523 29.7184L10.8486 30.4289L11.5523 29.7184C10.8841 29.0566 9.57652 28.6384 8.67628 29.53L5.88863 32.2911C5.44534 32.7301 5.3263 33.316 5.39176 33.8199C5.45704 34.3225 5.70509 34.7996 6.07885 35.1698C6.74975 35.8343 8.05353 36.2462 8.9549 35.3613Z" fill="#ECB84B" stroke="white" stroke-width="2"/>
<path d="M2.11779 22.5961H6.2556C7.52962 22.5961 8.19105 21.4052 8.19105 20.4317C8.19105 19.4452 7.50662 18.2705 6.2556 18.2705H2.11779C0.865555 18.2705 0.166748 19.4314 0.166748 20.4317C0.166748 21.4284 0.862504 22.5961 2.11779 22.5961Z" fill="#ECB84B" stroke="white" stroke-width="2"/>
<path d="M5.22693 9.90953L5.23388 9.91503L5.24094 9.92041L8.51812 12.4189L8.52403 12.4234L8.53001 12.4279C9.5126 13.1541 10.7639 12.6917 11.3858 11.8914C11.9956 11.1067 12.1706 9.75275 11.1649 8.9876C11.1645 8.98729 11.1641 8.98699 11.1637 8.98668L7.88835 6.48651L7.88839 6.48646L7.87886 6.47936C6.89396 5.7459 5.64179 6.22264 5.02513 7.01135C4.39951 7.81153 4.26619 9.14976 5.22693 9.90953Z" fill="#ECB84B" stroke="white" stroke-width="2"/>
<path d="M32.3996 35.7792L32.4058 35.7839L32.412 35.7885C33.3973 36.5167 34.6473 36.0456 35.2659 35.2543C35.8813 34.4673 36.0486 33.1135 35.0493 32.3471L35.0493 32.347L35.047 32.3453L31.7698 29.8468L31.7699 29.8467L31.7608 29.84C30.7786 29.1085 29.5252 29.5765 28.9053 30.3743C28.2991 31.1543 28.1135 32.5101 29.1232 33.2782C29.1235 33.2784 29.1239 33.2787 29.1243 33.279L32.3996 35.7792Z" fill="#ECB84B" stroke="white" stroke-width="2"/>
<path d="M32.8409 23.3797C34.4793 16.5995 30.2569 9.80224 23.4318 8.1843C16.6066 6.56635 9.73474 10.7336 8.09633 17.5138C6.45792 24.294 10.6803 31.0912 17.5054 32.7092C24.3306 34.3271 31.2025 30.1598 32.8409 23.3797Z" fill="#ECB84B" stroke="white" stroke-width="2"/>
</g>
<defs>
<clipPath id="clip0_99_5407">
<rect width="42" height="42" fill="white"/>
</clipPath>
</defs>
</svg>
