<svg width="36" height="36" viewBox="0 0 36 36" fill="none" xmlns="http://www.w3.org/2000/svg">
<path d="M27.3151 19.8421C28.6067 14.4974 25.2792 9.12763 19.8829 7.84841C14.4867 6.5692 9.06514 9.86496 7.7736 15.2097C6.48206 20.5544 9.80958 25.9242 15.2058 27.2034C20.6021 28.4826 26.0236 25.1869 27.3151 19.8421Z" fill="#ECB84B"/>
<path d="M17.659 6.41857C17.4116 6.43617 17.1672 6.3566 16.9787 6.19707C16.7901 6.03755 16.6725 5.8109 16.6514 5.56617V1.8548C16.6725 1.61007 16.7901 1.38342 16.9787 1.2239C17.1672 1.06438 17.4116 0.984808 17.659 1.0024C17.9063 0.984808 18.1507 1.06438 18.3393 1.2239C18.5279 1.38342 18.6455 1.61007 18.6666 1.8548V5.56088C18.6468 5.80656 18.5298 6.03454 18.3411 6.19518C18.1523 6.35582 17.9072 6.43611 17.659 6.41857Z" fill="#ECB84B"/>
<path d="M17.659 34.013C17.1031 34.013 16.6514 33.6635 16.6514 33.2188V29.8039C16.6514 29.3698 17.1031 29.0098 17.659 29.0098C18.2149 29.0098 18.6666 29.3592 18.6666 29.8039V33.2188C18.6666 33.6635 18.2149 34.013 17.659 34.013Z" fill="#ECB84B"/>
<path d="M33.2222 18.511H29.8466C29.4163 18.511 29.0688 18.0637 29.0688 17.513C29.0688 16.9624 29.4163 16.5177 29.8466 16.5177H33.2222C33.6526 16.5177 34 16.9624 34 17.513C34 18.0637 33.6526 18.511 33.2222 18.511Z" fill="#ECB84B"/>
<path d="M29.6781 7.30803L27.2887 9.67463C26.9867 9.97641 26.4228 9.90228 26.0299 9.51314C25.637 9.124 25.5622 8.56544 25.8668 8.26366L28.2536 5.89972C28.5583 5.59793 29.1222 5.67206 29.5151 6.0612C29.908 6.45034 29.9801 7.00889 29.6781 7.30803Z" fill="#ECB84B"/>
<path d="M9.46191 27.3314L7.07517 29.698C6.77048 29.9971 6.20654 29.9257 5.81365 29.5365C5.42076 29.1474 5.3486 28.5862 5.65061 28.287L8.04002 25.9204C8.34204 25.6213 8.90598 25.6928 9.29887 26.0819C9.69176 26.4711 9.7666 27.0323 9.46191 27.3314Z" fill="#ECB84B"/>
<path d="M1.81517 18.511H5.36187C5.81089 18.511 6.16369 18.0637 6.16369 17.513C6.16369 16.9624 5.8002 16.5177 5.36187 16.5177H1.81517C1.36616 16.5177 1 16.9624 1 17.513C1 18.0637 1.36616 18.511 1.81517 18.511Z" fill="#ECB84B"/>
<path d="M5.01166 7.82163L7.82068 9.96321C8.17882 10.2279 8.74277 10.1035 9.0822 9.66672C9.42164 9.22994 9.4056 8.65549 9.05013 8.38548L6.24111 6.24125C5.88564 5.97653 5.32169 6.10359 4.98226 6.53773C4.64283 6.97187 4.66688 7.54896 5.01166 7.82163Z" fill="#ECB84B"/>
<path d="M25.4821 27.8423L28.2911 29.9866C28.6492 30.2513 29.2132 30.1242 29.5526 29.6901C29.8921 29.2559 29.876 28.6788 29.5205 28.4062L26.7115 26.2646C26.3561 25.9999 25.7921 26.1243 25.4527 26.5611C25.1132 26.9979 25.1266 27.5723 25.4821 27.8423Z" fill="#ECB84B"/>
</svg>
