<svg width="36" height="36" viewBox="0 0 36 36" fill="none" xmlns="http://www.w3.org/2000/svg">
<g clip-path="url(#clip0_91_4719)">
<path d="M29.4213 12.8935H29.3752C29.6682 12.127 29.8194 11.3007 29.8196 10.4656C29.8186 8.84284 29.249 7.28687 28.2358 6.13925C27.2227 4.99162 25.8487 4.34613 24.4157 4.34447C23.3996 4.34394 22.4042 4.66969 21.545 5.28393C20.9778 3.72102 20.0131 2.38426 18.7736 1.44345C17.534 0.502637 16.0755 0.000219682 14.5832 0C13.5946 0 12.6158 0.220474 11.7024 0.648846C10.7891 1.07722 9.95926 1.70509 9.26023 2.49662C8.56121 3.28815 8.00671 4.22783 7.6284 5.26201C7.25009 6.29619 7.05538 7.40461 7.05538 8.524C7.05774 8.87306 7.07867 9.22164 7.11807 9.56784H7.05538C5.71655 9.56784 4.43256 10.1701 3.48587 11.242C2.53918 12.314 2.00732 13.7679 2.00732 15.2839C2.00732 16.7985 2.53816 18.2511 3.48326 19.3229C4.42836 20.3946 5.71045 20.9978 7.048 21H29.4213C30.3706 20.9994 31.2808 20.5721 31.9519 19.8118C32.623 19.0515 33 18.0206 33 16.9457C33 15.871 32.6229 14.8403 31.9518 14.0804C31.2807 13.3204 30.3704 12.8935 29.4213 12.8935Z" fill="#BED7EA"/>
<path d="M25.6213 22.3243H16.7504L21.2486 14.3274H16.7504L10.3784 25.8057H17.2502L14.5 36.1934L25.6213 22.3243Z" fill="#ECB84B"/>
</g>
<defs>
<clipPath id="clip0_91_4719">
<rect width="36" height="36" fill="white"/>
</clipPath>
</defs>
</svg>
