<svg width="36" height="36" viewBox="0 0 36 36" fill="none" xmlns="http://www.w3.org/2000/svg">
<path d="M31.9979 15.0516H31.9592C32.205 14.3946 32.3318 13.6864 32.3319 12.9705C32.3311 11.5796 31.8533 10.2459 31.0033 9.26221C30.1534 8.27853 29.0008 7.72525 27.7986 7.72383C26.9462 7.72338 26.1111 8.0026 25.3904 8.52908C24.9145 7.18944 24.1053 6.04365 23.0654 5.23724C22.0255 4.43083 20.8019 4.00019 19.55 4C18.7207 4 17.8995 4.18898 17.1333 4.55615C16.3671 4.92333 15.6709 5.46151 15.0845 6.13996C14.4981 6.81841 14.0329 7.62385 13.7156 8.51029C13.3982 9.39673 13.2349 10.3468 13.2349 11.3063C13.2368 11.6055 13.2544 11.9043 13.2874 12.201H13.2349C12.1117 12.201 11.0346 12.7172 10.2404 13.636C9.44618 14.5549 9 15.8011 9 17.1005C9 18.3987 9.44532 19.6438 10.2382 20.5625C11.031 21.4811 12.1066 21.9981 13.2287 22H31.9979C32.7942 21.9995 33.5578 21.6332 34.1208 20.9815C34.6838 20.3299 35 19.4462 35 18.5249C35 17.6037 34.6837 16.7203 34.1207 16.0689C33.5577 15.4175 32.7941 15.0516 31.9979 15.0516Z" fill="#9AC6E8"/>
<path d="M27.414 20.8935H27.3679C27.6609 20.127 27.8121 19.3007 27.8122 18.4656C27.8113 16.8428 27.2417 15.2869 26.2285 14.1392C25.2154 12.9916 23.8414 12.3461 22.4084 12.3445C21.3923 12.3439 20.3969 12.6697 19.5377 13.2839C18.9705 11.721 18.0058 10.3843 16.7663 9.44345C15.5267 8.50264 14.0682 8.00022 12.5759 8C11.5873 8 10.6084 8.22047 9.69512 8.64885C8.7818 9.07722 7.95193 9.70509 7.25291 10.4966C6.55388 11.2881 5.99939 12.2278 5.62108 13.262C5.24277 14.2962 5.04806 15.4046 5.04806 16.524C5.05042 16.8731 5.07135 17.2216 5.11074 17.5678H5.04806C3.70923 17.5678 2.42524 18.1701 1.47855 19.242C0.531851 20.314 0 21.7679 0 23.2839C-1.42736e-06 24.7985 0.530835 26.2511 1.47593 27.3229C2.42103 28.3946 3.70313 28.9978 5.04068 29H27.414C28.3633 28.9994 29.2735 28.5721 29.9446 27.8118C30.6157 27.0515 30.9926 26.0206 30.9926 24.9457C30.9926 23.871 30.6156 22.8403 29.9445 22.0804C29.2733 21.3204 28.3631 20.8935 27.414 20.8935Z" fill="#BED7EA"/>
</svg>
