<svg width="36" height="36" viewBox="0 0 36 36" fill="none" xmlns="http://www.w3.org/2000/svg">
<path d="M29.4213 14.8935H29.3752C29.6682 14.127 29.8194 13.3007 29.8196 12.4656C29.8186 10.8428 29.249 9.28687 28.2358 8.13925C27.2227 6.99162 25.8487 6.34613 24.4157 6.34447C23.3996 6.34394 22.4042 6.66969 21.545 7.28393C20.9778 5.72102 20.0131 4.38426 18.7736 3.44345C17.534 2.50264 16.0755 2.00022 14.5832 2C13.5946 2 12.6158 2.22047 11.7024 2.64885C10.7891 3.07722 9.95926 3.70509 9.26023 4.49662C8.56121 5.28815 8.00671 6.22783 7.6284 7.26201C7.25009 8.29619 7.05538 9.40461 7.05538 10.524C7.05774 10.8731 7.07867 11.2216 7.11807 11.5678H7.05538C5.71655 11.5678 4.43256 12.1701 3.48587 13.242C2.53918 14.314 2.00732 15.7679 2.00732 17.2839C2.00732 18.7985 2.53816 20.2511 3.48326 21.3229C4.42836 22.3946 5.71045 22.9978 7.048 23H29.4213C30.3706 22.9994 31.2808 22.5721 31.9519 21.8118C32.623 21.0515 33 20.0206 33 18.9457C33 17.871 32.6229 16.8403 31.9518 16.0804C31.2807 15.3204 30.3704 14.8935 29.4213 14.8935Z" fill="#BED7EA"/>
<path d="M12.5 23L10.357 27.0543C10.1162 27.4924 9.99403 27.9746 10.0002 28.4624C10.0064 28.9502 10.1408 29.4298 10.3927 29.863C10.7657 30.4758 11.4047 31 12.5 31C13.5953 31 14.2343 30.4705 14.6073 29.863C14.8592 29.4298 14.9936 28.9502 14.9998 28.4624C15.006 27.9746 14.8838 27.4924 14.643 27.0543L12.5 23Z" fill="#84C1EF"/>
<path d="M19.5485 30L18.2215 32.8189C18.0721 33.1236 17.9963 33.4591 18.0001 33.7984C18.004 34.1377 18.0875 34.4714 18.2438 34.7725C18.3682 35.0111 18.5555 35.2111 18.7856 35.3506C19.0156 35.4901 19.2795 35.5639 19.5485 35.5639C19.8176 35.5639 20.0815 35.4901 20.3115 35.3506C20.5416 35.2111 20.7289 35.0111 20.8533 34.7725C21.0092 34.4712 21.0925 34.1376 21.0963 33.7984C21.1002 33.4591 21.0246 33.1237 20.8756 32.8189L19.5485 30Z" fill="#84C1EF"/>
<path d="M24.4628 19L22.3512 23.4858C22.1142 23.9706 21.994 24.5042 22.0002 25.0438C22.0065 25.5834 22.139 26.114 22.3872 26.5931C22.5851 26.9728 22.8834 27.2909 23.2495 27.5129C23.6155 27.7349 24.0355 27.8523 24.4636 27.8523C24.8918 27.8523 25.3117 27.7349 25.6778 27.5129C26.0439 27.2909 26.3421 26.9728 26.54 26.5931C26.7875 26.1137 26.9196 25.5831 26.9255 25.0436C26.9315 24.504 26.8112 23.9706 26.5743 23.4858L24.4628 19Z" fill="#84C1EF"/>
</svg>
