<svg width="36" height="36" viewBox="0 0 36 36" fill="none" xmlns="http://www.w3.org/2000/svg">
<path d="M18.4318 3H17.5681C17.0738 3 16.6731 3.4007 16.6731 3.895V32.105C16.6731 32.5993 17.0738 33 17.5681 33H18.4318C18.9261 33 19.3268 32.5993 19.3268 32.105V3.895C19.3268 3.4007 18.9261 3 18.4318 3Z" fill="#BED7EA"/>
<path d="M23.2196 5.18083C23.3028 5.26395 23.3688 5.36265 23.4138 5.47129C23.4588 5.57993 23.482 5.69637 23.482 5.81397C23.482 5.93157 23.4588 6.04802 23.4138 6.15666C23.3688 6.2653 23.3028 6.36399 23.2196 6.44711L18.0235 11.6451L18.004 11.6197L17.9805 11.6451L12.7825 6.44711C12.6991 6.36412 12.6329 6.26547 12.5877 6.15681C12.5425 6.04816 12.5193 5.93164 12.5193 5.81397C12.5193 5.6963 12.5425 5.57978 12.5877 5.47112C12.6329 5.36247 12.6991 5.26382 12.7825 5.18083L13.3922 4.57114C13.4753 4.48794 13.574 4.42194 13.6827 4.37692C13.7913 4.33189 13.9078 4.30872 14.0254 4.30872C14.143 4.30872 14.2594 4.33189 14.368 4.37692C14.4767 4.42194 14.5754 4.48794 14.6585 4.57114L17.3709 7.28153C17.454 7.36473 17.5527 7.43073 17.6613 7.47575C17.7699 7.52078 17.8864 7.54395 18.004 7.54395C18.1216 7.54395 18.238 7.52078 18.3467 7.47575C18.4553 7.43073 18.554 7.36473 18.6371 7.28153L21.3436 4.57309C21.4266 4.48967 21.5253 4.42346 21.6339 4.37829C21.7426 4.33311 21.8591 4.30985 21.9768 4.30985C22.0944 4.30985 22.211 4.33311 22.3196 4.37829C22.4283 4.42346 22.5269 4.48967 22.6099 4.57309L23.2196 5.18083Z" fill="#BED7EA"/>
<path d="M12.7824 30.8211C12.6992 30.738 12.6333 30.6393 12.5882 30.5307C12.5432 30.422 12.52 30.3056 12.52 30.188C12.52 30.0704 12.5432 29.9539 12.5882 29.8453C12.6333 29.7366 12.6992 29.6379 12.7824 29.5548L17.9766 24.3568L17.9961 24.3803L18.0215 24.3568L23.2176 29.5587C23.3857 29.7269 23.4802 29.955 23.4802 30.1929C23.4802 30.4307 23.3857 30.6588 23.2176 30.827L22.6059 31.4367C22.4381 31.6041 22.2108 31.6981 21.9738 31.6981C21.7367 31.6981 21.5094 31.6041 21.3416 31.4367L18.6273 28.7184C18.4591 28.5503 18.231 28.4559 17.9932 28.4559C17.7553 28.4559 17.5272 28.5503 17.359 28.7184L14.6526 31.4269C14.5694 31.5101 14.4707 31.5761 14.3621 31.6211C14.2535 31.6661 14.137 31.6893 14.0194 31.6893C13.9018 31.6893 13.7854 31.6661 13.6767 31.6211C13.5681 31.5761 13.4694 31.5101 13.3863 31.4269L12.7824 30.8211Z" fill="#BED7EA"/>
<path d="M33 18.4318V17.5681C33 17.0738 32.5993 16.6731 32.105 16.6731L3.895 16.6731C3.4007 16.6731 3.00001 17.0738 3.00001 17.5681V18.4318C3.00001 18.9261 3.4007 19.3268 3.895 19.3268H32.105C32.5993 19.3268 33 18.9261 33 18.4318Z" fill="#BED7EA"/>
<path d="M30.8212 23.2195C30.6531 23.3871 30.4254 23.4811 30.1881 23.4811C29.9507 23.4811 29.7231 23.3871 29.5549 23.2195L24.3569 18.0293L24.3804 18.0098L24.3569 17.9863L29.553 12.7883C29.6361 12.7048 29.735 12.6386 29.8438 12.5934C29.9526 12.5482 30.0693 12.5249 30.1871 12.5249C30.305 12.5249 30.4216 12.5482 30.5304 12.5934C30.6393 12.6386 30.7381 12.7048 30.8212 12.7883L31.4309 13.398C31.5985 13.5661 31.6925 13.7938 31.6925 14.0311C31.6925 14.2685 31.5985 14.4962 31.4309 14.6643L28.7225 17.3747C28.6391 17.4577 28.5729 17.5563 28.5277 17.665C28.4825 17.7736 28.4592 17.8901 28.4592 18.0078C28.4592 18.1255 28.4825 18.242 28.5277 18.3507C28.5729 18.4593 28.6391 18.558 28.7225 18.641L31.429 21.3514C31.5122 21.4345 31.5782 21.5332 31.6232 21.6418C31.6682 21.7504 31.6914 21.8669 31.6914 21.9845C31.6914 22.1021 31.6682 22.2185 31.6232 22.3272C31.5782 22.4358 31.5122 22.5345 31.429 22.6176L30.8212 23.2195Z" fill="#BED7EA"/>
<path d="M5.18078 12.7825C5.2639 12.6993 5.3626 12.6333 5.47124 12.5882C5.57988 12.5432 5.69632 12.52 5.81392 12.52C5.93152 12.52 6.04797 12.5432 6.15661 12.5882C6.26525 12.6333 6.36395 12.6993 6.44707 12.7825L11.6451 17.9766L11.6197 17.9961L11.6451 18.0215L6.44707 23.2176C6.36395 23.3008 6.26525 23.3667 6.15661 23.4118C6.04797 23.4568 5.93152 23.48 5.81392 23.48C5.69632 23.48 5.57988 23.4568 5.47124 23.4118C5.3626 23.3667 5.2639 23.3008 5.18078 23.2176L4.57109 22.6059C4.48796 22.523 4.422 22.4244 4.377 22.316C4.332 22.2075 4.30884 22.0912 4.30884 21.9738C4.30884 21.8563 4.332 21.74 4.377 21.6316C4.422 21.5231 4.48796 21.4245 4.57109 21.3416L7.28149 18.6312C7.44962 18.463 7.54407 18.2349 7.54407 17.9971C7.54407 17.7593 7.44962 17.5312 7.28149 17.363L4.57304 14.6565C4.48962 14.5735 4.42342 14.4748 4.37824 14.3662C4.33307 14.2575 4.30981 14.141 4.30981 14.0233C4.30981 13.9057 4.33307 13.7891 4.37824 13.6805C4.42342 13.5718 4.48962 13.4732 4.57304 13.3902L5.18078 12.7825Z" fill="#BED7EA"/>
<path d="M10.8362 25.1659C10.753 25.0828 10.687 24.9841 10.6419 24.8754C10.5969 24.7668 10.5737 24.6503 10.5737 24.5327C10.5737 24.4151 10.5969 24.2987 10.6419 24.1901C10.687 24.0814 10.753 23.9827 10.8362 23.8996L23.9035 10.8342C23.9866 10.751 24.0853 10.685 24.194 10.64C24.3026 10.5949 24.419 10.5718 24.5366 10.5718C24.6542 10.5718 24.7707 10.5949 24.8793 10.64C24.988 10.685 25.0867 10.751 25.1698 10.8342C25.253 10.9173 25.319 11.016 25.364 11.1247C25.409 11.2333 25.4322 11.3497 25.4322 11.4673C25.4322 11.5849 25.409 11.7014 25.364 11.81C25.319 11.9187 25.253 12.0174 25.1698 12.1005L12.1063 25.1639C12.0233 25.2478 11.9244 25.3145 11.8155 25.36C11.7066 25.4056 11.5897 25.4291 11.4717 25.4293C11.3536 25.4295 11.2367 25.4063 11.1276 25.3611C11.0185 25.3159 10.9195 25.2495 10.8362 25.1659Z" fill="#BED7EA"/>
<path d="M26.6177 14.078C26.6172 14.3157 26.5225 14.5436 26.3544 14.7117C26.1863 14.8798 25.9584 14.9744 25.7207 14.975H21.0484V14.9554H21.0249V10.2811C21.0246 10.1632 21.0477 10.0465 21.0927 9.93755C21.1376 9.82861 21.2037 9.72963 21.287 9.64629C21.3704 9.56295 21.4694 9.49689 21.5783 9.4519C21.6872 9.40692 21.804 9.3839 21.9219 9.38416C22.1591 9.38519 22.3862 9.48015 22.5536 9.64825C22.7209 9.81635 22.8149 10.0439 22.8149 10.2811V12.288C22.8154 12.5257 22.9101 12.7536 23.0782 12.9217C23.2463 13.0898 23.4741 13.1845 23.7119 13.185H25.7207C25.9583 13.185 26.1861 13.2792 26.3543 13.447C26.5224 13.6148 26.6172 13.8424 26.6177 14.08V14.078Z" fill="#BED7EA"/>
<path d="M9.38428 21.922C9.38428 21.6846 9.47857 21.457 9.64641 21.2891C9.81426 21.1213 10.0419 21.027 10.2793 21.027H14.9536V21.0485H14.9751V25.7228C14.9751 25.9602 14.8808 26.1878 14.7129 26.3556C14.5451 26.5235 14.3174 26.6178 14.0801 26.6178C13.8427 26.6178 13.6151 26.5235 13.4472 26.3556C13.2794 26.1878 13.1851 25.9602 13.1851 25.7228V23.7139C13.1851 23.4766 13.0908 23.2489 12.9229 23.0811C12.7551 22.9132 12.5275 22.8189 12.2901 22.8189H10.2793C10.0419 22.8189 9.81426 22.7246 9.64641 22.5568C9.47857 22.389 9.38428 22.1613 9.38428 21.9239V21.922Z" fill="#BED7EA"/>
<path d="M10.8342 10.8362C10.9173 10.753 11.016 10.687 11.1247 10.6419C11.2333 10.5969 11.3498 10.5737 11.4674 10.5737C11.585 10.5737 11.7014 10.5969 11.81 10.6419C11.9187 10.687 12.0174 10.753 12.1005 10.8362L25.1659 23.8918C25.2491 23.9749 25.3151 24.0736 25.3601 24.1822C25.4051 24.2909 25.4283 24.4073 25.4283 24.5249C25.4283 24.6425 25.4051 24.759 25.3601 24.8676C25.3151 24.9762 25.2491 25.0749 25.1659 25.1581C25.0828 25.2413 24.9841 25.3073 24.8754 25.3523C24.7668 25.3973 24.6504 25.4205 24.5328 25.4205C24.4152 25.4205 24.2987 25.3973 24.1901 25.3523C24.0814 25.3073 23.9827 25.2413 23.8996 25.1581L10.8362 12.0946C10.6703 11.9273 10.577 11.7014 10.5767 11.4658C10.5763 11.2302 10.6688 11.0039 10.8342 10.8362Z" fill="#BED7EA"/>
<path d="M21.9218 26.6275C21.6843 26.627 21.4567 26.5323 21.2889 26.3641C21.1211 26.196 21.0269 25.9681 21.0269 25.7306V21.0582H21.0484V21.0348H25.7207C25.8384 21.0348 25.9549 21.058 26.0637 21.1031C26.1724 21.1482 26.2711 21.2143 26.3543 21.2976C26.4374 21.3809 26.5033 21.4798 26.5481 21.5886C26.593 21.6975 26.616 21.814 26.6157 21.9317C26.6157 22.1691 26.5214 22.3967 26.3536 22.5646C26.1857 22.7324 25.9581 22.8267 25.7207 22.8267H23.7079C23.4704 22.8273 23.2427 22.922 23.075 23.0901C22.9072 23.2583 22.8129 23.4861 22.8129 23.7237V25.7286C22.8129 25.9662 22.7187 26.194 22.5509 26.3622C22.3831 26.5303 22.1555 26.6251 21.9179 26.6256L21.9218 26.6275Z" fill="#BED7EA"/>
<path d="M14.0781 9.38416C14.3157 9.38415 14.5435 9.47838 14.7117 9.64617C14.8798 9.81396 14.9746 10.0416 14.9751 10.2792V14.9535H14.9555V14.975H10.2812C10.1635 14.9752 10.0469 14.9522 9.93813 14.9074C9.82931 14.8625 9.73042 14.7966 9.6471 14.7135C9.56379 14.6304 9.49769 14.5316 9.45259 14.4229C9.40749 14.3142 9.38428 14.1977 9.38428 14.08C9.38479 13.8424 9.47952 13.6148 9.64768 13.447C9.81583 13.2792 10.0437 13.185 10.2812 13.185H12.2881C12.5257 13.185 12.7535 13.0907 12.9217 12.9229C13.0898 12.7551 13.1846 12.5275 13.1851 12.29V10.2792C13.1851 10.1616 13.2082 10.0452 13.2532 9.93664C13.2982 9.82806 13.3641 9.7294 13.4472 9.64629C13.5303 9.56318 13.629 9.49726 13.7376 9.45228C13.8462 9.40731 13.9625 9.38416 14.0801 9.38416H14.0781Z" fill="#BED7EA"/>
</svg>
