<svg width="24" height="24" viewBox="0 0 24 24" fill="none" xmlns="http://www.w3.org/2000/svg">
<path d="M19.209 4.14621C19.1189 4.07883 19.0144 4.0331 18.9038 4.01256C18.7931 3.99202 18.6792 3.99723 18.5708 4.02777L8.38202 6.93671C8.23006 6.98042 8.09648 7.07243 8.00154 7.19881C7.90659 7.32518 7.85545 7.47904 7.85585 7.63707V14.5876C7.38646 14.3166 6.85053 14.1824 6.30873 14.2001C5.76693 14.2177 5.24091 14.3866 4.7902 14.6876C4.3395 14.9886 3.98211 15.4097 3.75851 15.9032C3.53491 16.3966 3.45402 16.9428 3.525 17.4799C3.59598 18.0169 3.81599 18.5234 4.16013 18.9419C4.50426 19.3605 4.95878 19.6744 5.47223 19.8481C5.98568 20.0219 6.53755 20.0485 7.06536 19.925C7.59317 19.8015 8.07585 19.5329 8.45875 19.1494C9.00467 18.6038 9.31139 17.8638 9.31149 17.0923V11.8248L18.0447 9.33138V14.5876C17.4917 14.2707 16.8497 14.145 16.218 14.2299C15.5863 14.3148 15.0002 14.6056 14.5507 15.0572C14.1012 15.5088 13.8134 16.096 13.7318 16.7277C13.6503 17.3594 13.7795 18.0004 14.0996 18.5512C14.4196 19.1021 14.9126 19.532 15.502 19.7744C16.0915 20.0167 16.7445 20.058 17.3598 19.8918C17.9751 19.7255 18.5183 19.3611 18.9053 18.855C19.2922 18.3488 19.5013 17.7292 19.5 17.0923V4.72813C19.5 4.61521 19.4738 4.50384 19.4232 4.40284C19.3727 4.30183 19.2994 4.21397 19.209 4.14621Z" fill="#6C7B77"/>
</svg>
