<svg width="24" height="24" viewBox="0 0 24 24" fill="none" xmlns="http://www.w3.org/2000/svg">
<path d="M8.9974 9.24794C8.8775 9.17201 8.7532 9.10247 8.62371 9.03732C8.49422 8.97218 8.35954 8.92342 8.22086 8.87386C7.53516 8.655 6.79633 8.66905 6.11945 8.91383C5.97295 8.96778 5.83079 9.03284 5.69421 9.10846C5.41923 9.25606 5.16731 9.44309 4.94644 9.66359C4.83676 9.77409 4.73512 9.89229 4.6423 10.0173C4.59142 10.0832 4.54431 10.1519 4.50122 10.2231C4.434 10.3277 4.37275 10.4361 4.31778 10.5476C4.27302 10.6414 4.23305 10.7376 4.19788 10.8362C4.16231 10.9417 4.12874 11.0512 4.09956 11.1651C4.09077 11.2011 4.08398 11.2415 4.07479 11.285C4.05475 11.3621 4.04138 11.4407 4.03482 11.52C4.02751 11.5597 4.0223 11.5997 4.01923 11.6399C4.01411 11.6679 4.01117 11.6962 4.01044 11.7246C4.00604 11.7986 4.00165 11.8705 4.00165 11.9488C4.00091 11.9705 4.00239 11.9922 4.00604 12.0136C4.00627 12.156 4.01749 12.2982 4.03962 12.4388V12.448C4.04841 12.5036 4.0552 12.5619 4.06879 12.6179C4.07281 12.6383 4.07801 12.6584 4.08438 12.6782C4.20077 13.1829 4.43712 13.652 4.77339 14.0459C5.23966 14.6027 5.88279 14.9827 6.59544 15.1226C6.63811 15.1321 6.68162 15.1373 6.72533 15.1381C6.78088 15.1493 6.83923 15.1537 6.89958 15.1629C6.94434 15.1673 6.9935 15.1717 7.04066 15.1741H7.08063C7.12979 15.1785 7.18134 15.1785 7.2309 15.1785C7.29072 15.18 7.35056 15.1771 7.40995 15.1697C7.44996 15.1704 7.48999 15.169 7.52984 15.1653C7.53864 15.1653 7.54983 15.1605 7.55862 15.1605C7.6646 15.1513 7.76999 15.1364 7.87435 15.1158C7.9303 15.1046 7.98386 15.087 8.03981 15.0758C8.14492 15.0466 8.24364 15.0198 8.34435 14.9815C8.5402 14.9084 8.72885 14.8173 8.90787 14.7093C9.07391 14.6044 9.2311 14.4861 9.37787 14.3556C9.41784 14.32 9.45421 14.2865 9.49218 14.2505L13.5343 16.6744V17.6668C13.5354 18.1463 13.643 18.6197 13.8492 19.0526C14.0554 19.4855 14.3552 19.8673 14.7269 20.1703C15.0986 20.4733 15.533 20.6899 15.9986 20.8047C16.4642 20.9194 16.9495 20.9293 17.4194 20.8337C18.6728 20.5855 19.6891 19.5712 19.9353 18.3182C20.3405 16.2532 18.7627 14.4295 16.7684 14.4295C15.9199 14.4297 15.1059 14.7652 14.5035 15.3628L10.459 12.9348L10.4118 12.9056L10.3291 12.8565C10.5022 12.2632 10.5022 11.6329 10.3291 11.0396L10.459 10.9633L14.5055 8.53455C15.2249 9.24834 16.276 9.61763 17.3994 9.40741C18.021 9.28486 18.5928 8.98197 19.0433 8.53655C19.4938 8.09112 19.8032 7.52288 19.9329 6.90273C20.3869 4.64225 18.4669 2.66833 16.2161 3.04681C15.0171 3.24664 14.0251 4.14547 13.6758 5.31608C13.4918 5.91227 13.4903 6.54986 13.6714 7.14693L9.49218 9.6464C9.34045 9.49762 9.17476 9.36378 8.9974 9.24674V9.24794Z" fill="#6C7B77"/>
</svg>
