<svg width="92" height="92" viewBox="0 0 92 92" fill="none" xmlns="http://www.w3.org/2000/svg">
<g filter="url(#filter0_d_75_71)">
<circle cx="48" cy="48" r="28" fill="#7C9A92"/>
<circle cx="48" cy="48" r="27" stroke="white" stroke-width="2"/>
</g>
<path d="M44.9197 53.4747L40.7307 53.646C40.4583 53.646 40.1972 53.5401 40.0046 53.3514C39.8121 53.1628 39.7039 52.9069 39.7039 52.6401L39.8893 48.5357L48.1642 40.488L53.2369 45.4581L44.9197 53.4747Z" fill="white"/>
<path d="M54.6744 43.9589L49.5407 38.9797L50.6906 37.9231C50.8806 37.7365 51.1063 37.5883 51.3548 37.4871C51.6032 37.3859 51.8696 37.3337 52.1386 37.3333C52.4085 37.3332 52.6757 37.3852 52.9249 37.4864C53.1742 37.5876 53.4007 37.736 53.5913 37.9231L55.7574 40.0558C55.9491 40.2422 56.1013 40.4639 56.2052 40.7082C56.3091 40.9524 56.3627 41.2144 56.3629 41.479C56.3631 41.7434 56.31 42.0052 56.2067 42.2495C56.1034 42.4937 55.9519 42.7156 55.761 42.9023L54.6744 43.9589Z" fill="white"/>
<path d="M57.3333 57.6607C57.3334 57.9275 57.2253 58.1835 57.0329 58.3723C56.8401 58.5607 56.5789 58.6666 56.3066 58.6666H39.6934C39.4211 58.6666 39.1599 58.5607 38.9674 58.372C38.7748 58.1833 38.6667 57.9275 38.6667 57.6607C38.6667 57.3939 38.7748 57.138 38.9674 56.9494C39.1599 56.7607 39.4211 56.6547 39.6934 56.6547H56.3066C56.5771 56.6547 56.8367 56.7593 57.0289 56.9457C57.2212 57.1321 57.3306 57.3853 57.3333 57.6503V57.6607Z" fill="white"/>
<defs>
<filter id="filter0_d_75_71" x="0" y="0" width="96" height="96" filterUnits="userSpaceOnUse" color-interpolation-filters="sRGB">
<feFlood flood-opacity="0" result="BackgroundImageFix"/>
<feColorMatrix in="SourceAlpha" type="matrix" values="0 0 0 0 0 0 0 0 0 0 0 0 0 0 0 0 0 0 127 0" result="hardAlpha"/>
<feOffset/>
<feGaussianBlur stdDeviation="10"/>
<feComposite in2="hardAlpha" operator="out"/>
<feColorMatrix type="matrix" values="0 0 0 0 0 0 0 0 0 0 0 0 0 0 0 0 0 0 0.12 0"/>
<feBlend mode="normal" in2="BackgroundImageFix" result="effect1_dropShadow_75_71"/>
<feBlend mode="normal" in="SourceGraphic" in2="effect1_dropShadow_75_71" result="shape"/>
</filter>
</defs>
</svg>
