<svg width="24" height="24" viewBox="0 0 24 24" fill="none" xmlns="http://www.w3.org/2000/svg">
<g clip-path="url(#clip0_75_2165)">
<path d="M7.46017 11.7301C7.46017 12.0723 7.35871 12.4068 7.1686 12.6913C6.9785 12.9758 6.70829 13.1975 6.39216 13.3285C6.07603 13.4594 5.72817 13.4937 5.39256 13.4269C5.05696 13.3602 4.74869 13.1954 4.50673 12.9534C4.26477 12.7115 4.1 12.4032 4.03324 12.0676C3.96649 11.732 4.00075 11.3841 4.1317 11.068C4.26264 10.7519 4.48439 10.4817 4.7689 10.2916C5.05341 10.1015 5.38791 10 5.73009 10C6.18893 10 6.62899 10.1823 6.95344 10.5067C7.2779 10.8312 7.46017 11.2712 7.46017 11.7301Z" fill="#454443"/>
<path d="M13.7301 11.7301C13.7301 12.0723 13.6286 12.4068 13.4385 12.6913C13.2484 12.9758 12.9782 13.1975 12.662 13.3285C12.3459 13.4594 11.9981 13.4937 11.6625 13.4269C11.3269 13.3602 11.0186 13.1954 10.7766 12.9534C10.5347 12.7115 10.3699 12.4032 10.3031 12.0676C10.2364 11.732 10.2706 11.3841 10.4016 11.068C10.5325 10.7519 10.7543 10.4817 11.0388 10.2916C11.3233 10.1015 11.6578 10 12 10C12.4588 10 12.8989 10.1823 13.2233 10.5067C13.5478 10.8312 13.7301 11.2712 13.7301 11.7301Z" fill="#454443"/>
<path d="M20 11.7301C20 12.0723 19.8985 12.4068 19.7084 12.6913C19.5183 12.9758 19.2481 13.1975 18.932 13.3285C18.6158 13.4594 18.268 13.4937 17.9324 13.4269C17.5968 13.3602 17.2885 13.1954 17.0465 12.9534C16.8046 12.7115 16.6398 12.4032 16.573 12.0676C16.5063 11.732 16.5405 11.3841 16.6715 11.068C16.8024 10.7519 17.0242 10.4817 17.3087 10.2916C17.5932 10.1015 17.9277 10 18.2699 10C18.7287 10 19.1688 10.1823 19.4932 10.5067C19.8177 10.8312 20 11.2712 20 11.7301Z" fill="#454443"/>
</g>
<defs>
<clipPath id="clip0_75_2165">
<rect width="16" height="3.46017" fill="white" transform="translate(4 10)"/>
</clipPath>
</defs>
</svg>
