<svg width="18" height="22" viewBox="0 0 18 22" fill="none" xmlns="http://www.w3.org/2000/svg">
<path d="M2.57143 22H15.4286C16.1106 22 16.7646 21.7273 17.2468 21.2419C17.7291 20.7565 18 20.0982 18 19.4118V10.3529C18 9.6665 17.7291 9.00817 17.2468 8.52278C16.7646 8.03739 16.1106 7.76471 15.4286 7.76471H14.1429V5.17647C14.1429 3.80359 13.601 2.48693 12.6365 1.51615C11.6721 0.545376 10.364 0 9 0C7.63603 0 6.32792 0.545376 5.36345 1.51615C4.39898 2.48693 3.85714 3.80359 3.85714 5.17647V7.76471H2.57143C1.88944 7.76471 1.23539 8.03739 0.753154 8.52278C0.270918 9.00817 0 9.6665 0 10.3529V19.4118C0 20.0982 0.270918 20.7565 0.753154 21.2419C1.23539 21.7273 1.88944 22 2.57143 22ZM10.2857 15.5294C10.2857 15.8726 10.1503 16.2018 9.90914 16.4445C9.66802 16.6872 9.34099 16.8235 9 16.8235C8.65901 16.8235 8.33198 16.6872 8.09086 16.4445C7.84974 16.2018 7.71429 15.8726 7.71429 15.5294V14.2353C7.71429 13.8921 7.84974 13.5629 8.09086 13.3202C8.33198 13.0775 8.65901 12.9412 9 12.9412C9.34099 12.9412 9.66802 13.0775 9.90914 13.3202C10.1503 13.5629 10.2857 13.8921 10.2857 14.2353V15.5294ZM6.42857 5.17647C6.42857 4.49003 6.69949 3.8317 7.18172 3.34631C7.66396 2.86092 8.31801 2.58824 9 2.58824C9.68198 2.58824 10.336 2.86092 10.8183 3.34631C11.3005 3.8317 11.5714 4.49003 11.5714 5.17647V7.76471H6.42857V5.17647Z" fill="white"/>
</svg>
